<?xml version="1.0" encoding="UTF-8"?>
<svg id="Capa_1" data-name="Capa 1" xmlns="http://www.w3.org/2000/svg" viewBox="0 0 1636 2876.2">
  <defs>
    <style>
      .cls-1 {
        fill: #aa3fda;
      }

      .cls-1, .cls-2, .cls-3 {
        stroke-width: 0px;
      }

      .cls-2 {
        fill: #000;
      }

      .cls-3 {
        fill: #000;
      }
    </style>
  </defs>
  <g id="_9rgkVW" data-name="9rgkVW">
    <g>
      <path class="cls-2" d="m737.33,403.99c-7.27-6.75-13.98-12.99-20.71-19.2-.48-.44-1.07-.86-1.68-1.06-17.37-5.64-34.48-11.73-53.41-6.15-8.83,2.6-18.5,4.22-27.59,3.55-11.02-.81-21.9-4.21-31.38-10.76-9.54-6.59-18.28-13.92-26.27-22.46-5.85-6.25-7.6-13.16-7.57-20.84.04-12.22,4.95-23.43,9.53-34.34,2.26-5.38,8.37-9.33,15.21-9.8,4.65-.32,9.39.1,13.97-.59,6.17-.93,12.36-2.19,18.3-4.06,9.85-3.1,13.54-10.71,13.97-20.55.15-3.51,1.84-6.98,1.8-10.46-.06-5.51.06-11.38-1.76-16.44-3.46-9.64-8.65-18.64-12.35-28.2-7.74-20-15.59-39.6-16-62.04-.39-20.88,8.19-36.49,20.99-50.6,7.03-7.75,15.99-14.07,28.1-11.79,3.83.72,7.96-.33,11.94-.23,19.88.54,33.21,12.7,44.8,26.73,6.48,7.85,11.28,17.15,16.28,26.11,3.38,6.05,5.56,12.76,8.68,18.97,3.87,7.7,7.8,15.4,12.38,22.68,3.07,4.88,7.94,7.24,14.03,8.32,15.46,2.76,30.74,5.13,46.43,1.68,12.69-2.79,18.95-10.44,20.89-23.08,2.49-16.26,1.94-32.34.88-48.62-.64-9.83.66-19.79,1.25-29.68.56-9.25,1.05-18.53,2.14-27.73.58-4.89,2.59-9.6,3.48-14.47.52-2.84.09-5.86.09-9.79,6.92-6.39,14.71-13.89,22.83-21.02,14.34-12.59,27-10.48,35.58,6.51,10.14,20.08,17.03,41.09,16.24,64.11-.36,10.61,1.57,21.35.69,31.88-1.68,20.13-1.52,40.53-7.94,60.1-4.96,15.1-9.49,30.36-13.76,45.67-1.87,6.68-2.74,13.66-3.86,20.54-1.47,9.02,3.8,16.26,7.84,23.18,4.98,8.53,11.92,15.8,21.53,20.18,11.15,5.07,22.11,10.67,32.67,16.87,5.6,3.29,10.85,7.77,15.03,12.74,5.92,7.04,13.86,12.6,16.97,21.87,3.01,8.96,5.02,17.28-1.9,26.05-7.55,9.57-13.08,20.73-20.55,30.38-5.01,6.48-11.81,11.59-17.92,17.2-2.9,2.66-6.05,5.04-9.74,8.08,9.61,3.2,18.33,5.96,26.94,9.02,8.08,2.88,16.51,5.21,22.38,12.21.42.5.97.98,1.56,1.22,13.73,5.6,24.76,15.27,36.67,23.7,6.44,4.55,11.77,9.71,16.19,15.95,10.75,15.15,21.8,30.13,31.76,45.79,6.71,10.54,12.2,21.93,17.32,33.35,1.62,3.62.25,8.57.25,14,10.71.19,22.11-.24,33.5-1.98,7.82-1.19,15.64-2.59,23.51-3.23,6.42-.52,15.06,11.37,13.57,17.86-.65,2.84-2.14,6-1.47,8.53,1.82,6.78-.41,11.56-5.37,15.85-1.92,1.66-3.35,3.88-5.39,6.3-12.86-3.64-25.83-9.88-39.97-1.73-.14.56-.86,1.87-.68,3.03,1.72,10.95.29,21.85-.34,32.77-.15,2.63-.24,5.55.71,7.9,2.21,5.49,2.1,10.27-3.4,14.51,28.08,11.49,44.18,33.94,58.88,59.3,11.31-8.96,21.53-17.18,31.9-25.21,2.33-1.81,4.99-3.71,7.78-4.32,18.16-4.02,36.39-7.89,54.54.14,1.2.53,2.61.79,3.57,1.6,15.95,13.58,33.22,26.24,42.58,45.62,4.53,9.39,7.03,20,8.97,30.34,2.59,13.8-1.55,27.5-2.38,41.23-1.03,17.12-7.45,32.23-12.75,47.88-1.46,4.32-4.04,8.26-6.07,12.39-7.21,14.65-16.35,27.91-27.9,39.52-2.77,2.78-4.81,6.27-7.43,9.21-9.82,11.02-23.45,12.97-36.9,15.27-7.18,1.23-14.46,1.99-21.55,3.59-10.07,2.27-14.63,7.97-14.59,18.39.06,12.51-6.49,21.3-15.42,28.71-8.12,6.74-16.58,12.77-26.84,16.47-8.18,2.95-16.03,3.8-24.4,2.63-7.83-1.1-15.69-2.03-24.19-3.12-1.09,7.43-1.67,14.68-3.29,21.68-2.47,10.65-5.52,21.17-8.57,31.67-3.41,11.71-6.58,23.52-10.78,34.95-5.56,15.16-12.48,29.83-17.95,45.03-4.76,13.21-12.27,24.85-19.05,36.92-2.07,3.68-4.9,7.24-8.16,9.9-12.88,10.47-25.69,21.11-39.29,30.59-8.89,6.2-19.1,10.53-28.82,15.75,6.78,6.51,9.94,13.16,7.87,22.9-1.82,8.55-.68,17.4,3.6,26.01,3.76,7.55,4.82,16.41,7.37,24.6,1.86,5.99,3.75,12.06,6.48,17.67,2.29,4.69,7.28,6.38,10.85,3.55,9.11-7.21,18.86-3.97,28.53-2.75,2.25.28,4.4,1.35,6.62,1.97,6.89,1.9,10.7,6.26,11,13.53.07,1.64.33,3.26.42,4.1,10.4,4.89,20.28,9.32,29.94,14.18,4.09,2.06,8.3,4.45,11.45,7.67,8.54,8.76,16.78,17.85,24.7,27.17,11.59,13.65,22.85,27.58,34.16,41.46,7.33,8.99,14.94,17.8,21.57,27.29,4.13,5.91,6.72,12.91,9.9,19.47,6.8,14.04,13.94,27.93,20.18,42.21,5.41,12.38,9.74,25.22,14.61,37.83,3.2,8.28,6.5,16.52,9.75,24.78,2.8,7.12,5.79,14.17,8.34,21.37,6.9,19.46,15.07,38.26,25.07,56.42,6.84,12.42,11.02,26.28,17.21,39.09,7.92,16.4,16.46,32.51,25.13,48.54,11.41,21.11,25.01,40.87,38.87,60.42,13.65,19.25,27.6,38.3,41.63,57.28,2.74,3.7,6.38,6.75,9.72,9.99,10.01,9.71,20.07,19.37,30.11,29.05,1.68,1.62,3.26,3.35,5.06,4.82,8.41,6.89,18.11,12.37,23.75,22.23.47.82,1.34,1.58,2.2,2,8.78,4.24,13.89,11.35,16.66,20.52.54,1.79,2.02,3.46,3.45,4.78,7.57,7,15.26,13.87,22.91,20.77.99.89,1.87,2.04,3.03,2.58,21.3,9.93,39.11,26.63,62.66,32.32,3.39.82,6.2,3.82,9.45,5.49,7.36,3.77,14.83,7.33,22.25,10.98,1.18.58,2.54.93,3.52,1.74,12.32,10.07,25.41,19.41,36.58,30.63,6.93,6.96,13.01,15.66,12.17,27.21-.96,13.2-.25,26.53-1.29,39.72-.51,6.48-1.13,12.82-1.06,19.4.14,12.57-1.05,25.17-2.24,37.71-.25,2.6-2.29,5.81-4.49,7.29-4.44,3-4.68,6.51-3.94,11.22,1.69,10.84-4.84,31.44-11.6,37.93-4.14,3.97-8.37,6.7-14.83,6.45-10.1-.39-12.08,2.14-11.98,12.36.06,5.93.77,11.86.86,17.79.03,1.86-.75,3.84-1.57,5.57-3.96,8.4-7.81,16.85-12.15,25.05-5.16,9.75-9.13,20.22-19.98,26.05-6.61,3.55-12.11,9.19-18.05,13.95-1.02.82-2.18,1.81-2.6,2.97-6.56,17.83-23.92,21.45-38.18,29.13-4.35,2.34-8.99,4.15-13.3,6.56-13.69,7.65-27.81,13.78-43.24,17.5-11.44,2.75-22.22,8.25-33.32,12.46-2.44.92-5.11,2.4-7.5,2.12-9.47-1.09-18.35.28-26.95,4.4-2.01.96-4.49,1.03-6.79,1.25-8.94.87-17.88,1.9-26.85,2.32-4.55.21-9.16-.8-13.74-1.15-10.61-.83-21.23-2.35-31.82-2.21-17.4.24-34.45-.79-51.24-5.95-6.59-2.02-13.74-3.2-20.61-3.07-9.72.19-18.37-2.14-26.65-6.85-2.02-1.15-4.14-2.17-6.32-2.97-7.03-2.57-9.49-1.82-14.7,4-1.3,1.46-2.82,2.72-5.2,4.99-5.93-6.18-10.95-3.97-16.38-.29-6.12,4.14-13.03,5.63-20.6,6.42-10.11,1.05-19.96,4.59-29.92,7.07-12.59,3.14-25.1,6.64-37.8,9.26-5.45,1.13-11.27.49-16.93.55-10.91.12-21.83.1-32.74.26-10.02.15-19.78-.59-29.1-4.96-6.02-2.82-11.04-1.01-14.62,4.49-1.63,2.5-3.21,5.14-4.2,7.93-8.47,23.87-37.25,30.14-56.12,12.43-10.79-10.13-22.91-18.86-34.42-28.23-2.8-2.28-5.55-4.62-8.91-7.43-9.41,9.6-18.8,19.17-29.04,29.62-1.27.15-4.02.08-6.52.83-7.11,2.13-13.72,2.23-19.46-3.33-.46-.44-1.15-.76-1.78-.87-11.53-2.17-20.88-7.75-28.02-17.17-.95-1.25-3.5-1.81-5.3-1.79-2.62.03-5.36.52-7.83,1.42-31.34,11.42-63.3,9.1-95.39,4.58-2.94-.41-5.96-.24-8.94-.44-3.98-.27-8.04-.24-11.91-1.04-15.31-3.18-30.66-6.26-45.79-10.16-7.5-1.93-14.47-1.23-21.57.8-13.37,3.83-26.5,8.82-40.1,11.42-26.7,5.09-53.61,9.2-80.53,13.06-11.84,1.7-23.8.07-35.65-1.75-10.16-1.56-20.73-1.29-30.56-3.91-19.4-5.18-38.84-10.37-57.1-19.32-11.27-5.53-23.39-9.36-35.2-13.78-10.86-4.06-22.14-7.16-32.62-12.01-12.28-5.68-23.86-12.86-35.81-19.28-20.65-11.1-37.71-26.81-54.13-43.11-10.77-10.69-19.68-23.13-29.08-35.1-9.36-11.93-11.48-27.35-21.91-38.19-1.24-7.85-2.91-15.67-3.56-23.57-.47-5.72-.18-11.09-5.55-15.15-2-1.51-2.54-4.95-3.52-7.04-4.02,3.38-8.12,6.82-11.54,9.69-9.09-2.92-12.5-9.48-16.66-15.33-3.07-4.32-5.5-10.73-9.69-12.32-16.08-6.11-17.01-22.26-24.29-34.04-4.83-7.82-8.24-16.52-12.14-24.89-1.52-3.26-3.25-6.6-3.85-10.08-1.94-11.34-3.34-22.76-5.09-34.13-.65-4.24-2.25-8.4-2.43-12.64-.58-13.65,1-27.09,6.73-39.63,1.44-3.15,4.19-6.51,7.21-7.98,12.17-5.92,24.33-12.25,37.16-16.35,17.32-5.53,33.69-13.21,49.74-21.23,13.34-6.68,27.68-12.9,37.29-25.48,11.97-5.17,18.8-15.95,27.55-24.72,4.49-4.5,10.9-6.25,18.03-2.89,7.34-11.02,20.21-15.65,27.65-26.79,4.61-6.91,12.79-11.33,18.16-17.86,10.94-13.3,20.97-27.36,31.57-40.95,4.69-6.01,9.91-11.59,14.77-17.46,3.36-4.06,6.69-8.16,9.77-12.44,7.77-10.8,15.45-21.66,23.05-32.58,2.63-3.78,4.86-7.84,7.42-11.67,4.98-7.45,10.32-14.67,15.07-22.27,6.67-10.66,12.9-21.59,19.38-32.37,3.75-6.25,7.66-12.41,11.41-18.66,1.68-2.8,3.6-5.56,4.65-8.6,4.69-13.52,14-24.44,20.39-36.99,4.86-9.55,9.61-19.17,14.76-28.57,7.34-13.39,15.16-26.52,22.47-39.93,9.81-17.99,20.43-35.54,27.63-54.9,6.51-17.49,16.22-33.46,25.68-49.45,5.7-9.63,13.33-18.22,18.24-28.19,4.74-9.62,10.26-18.5,16.77-26.86,4.08-5.23,8.61-10.11,12.79-15.27,2.69-3.32,5.53-6.64,7.56-10.37,3.73-6.87,8.59-12.32,15.05-16.88,5.34-3.77,9.82-8.85,14.32-13.69,11.25-12.1,24.63-21.16,40.14-26.44,4.79-1.63,7.66-3.98,8.98-8.05,1.25-3.85,3.74-5.37,7.12-5.99,7.8-1.44,15.61-2.97,23.48-3.77,1.93-.2,4.8,1.8,6.05,3.61,1.79,2.58,2.48,5.92,3.95,9.73,7.98-5.95,15.29-11.53,22.76-16.89,2.65-1.9,6.01-2.89,8.47-4.98,8.47-7.17,13.63-16.42,13.83-27.54.32-18.22-.21-36.46-.19-54.69,0-5-1.48-7.86-6.84-9.15-11.36-2.73-21.51-8.31-31.05-14.98-1.62-1.13-3.35-2.23-4.66-3.68-7.4-8.23-16.25-15.67-21.65-25.08-7.49-13.07-17.97-23.76-25.33-37.09-10.14-18.38-19.56-37.16-29.76-55.5-7.43-13.36-12.69-27.35-16.27-42.39-5.05-21.16-12.99-41.62-18.44-62.7-3.88-14.98-7.3-30.31-5.12-46.13.45-3.25.06-6.61.06-10.58,1.78-1.27,3.86-2.74,6.73-4.77-1.07-.66-1.81-1.37-2.68-1.61-18.58-5.07-36.79-11.27-54.35-19.12-4.85-2.17-8.59-6.81-13.24-10.65-3.1,6.72,1.1,11.63,3.57,16.6,3.13,6.31,2.74,8.61-3.53,11.07-2.15.85-4.43,1.49-6.7,1.91-6.28,1.16-10.72-2.1-11.83-8.63-.56-3.27-.68-6.63-1.4-9.86-1.51-6.7-3.91-7.76-9.72-4.48-3.77,2.13-7.53,4.27-11.16,6.62-7.75,5.03-7.71,5.09-17.1-1.34,3.47-19.43,21.65-25.22,35.24-36.67-9.08-10.31-10.96-24.54-17.77-35.73-9.06-14.89-8.36-31.05-11.91-46.64-2.38-10.44-2.43-20.98-.48-31.52.81-4.38,1.63-8.76,2.45-13.14-5.35-1.41-9.7-2.75-14.14-3.7-24.27-5.22-45.45-.33-62.16,19.15-3.6,4.2-7.68,7.98-11.27,12.18-8.77,10.26-13.96,22.19-16.88,35.37-1.79,8.05-4.88,15.81-7.23,23.75-7.27,24.58-8.21,49.83-4.45,74.81,3.36,22.31,14.9,40.17,37.17,48.92,2.76,1.09,5.79,1.48,8.66,2.29,7.28,2.06,14.55,4.19,21.83,6.27,1.58.45,3.21,1.27,4.78,1.18,10.54-.58,20.64,3.47,31.62,1.14,9.03-1.91,17.76,2.55,22.96,10.97,3.48,5.63,6.43,11.63,9.1,17.7,3.27,7.42,8.44,12.16,15.94,15.49,13.21,5.86,26.29,6.45,39.51,1.06,4.17-1.7,8.01-4.52,11.55-7.38,5.13-4.13,10.66-6.88,17.28-6.23,2.62.26,5.11,1.84,7.65,2.8-7.66,15.19-20.45,23.54-33.84,29.04-16.03,6.59-33.18,7.83-49.99-.91-10.17-5.28-17.81-11.94-22.79-22.34-2.38-4.97-6.51-9.23-10.35-13.34-4.81-5.14-11.36-7.45-18.15-6.62-17.1,2.11-32.81-2.39-48.39-8.5-5.84-2.29-12.17-3.36-17.97-5.74-5.74-2.37-11.69-4.92-16.47-8.74-17.49-13.99-26.55-32.75-28.05-54.91-.92-13.49-1.13-27.05-.87-40.57.13-6.76,2.01-13.48,3.12-20.21.16-.98.6-1.96.57-2.93-.47-16.45,6.68-31.11,12.08-45.85,5.77-15.74,14.33-30.51,26.66-42.59,3.22-3.16,5.48-7.29,8.56-10.61,7.07-7.62,16.16-12.22,25.59-16.12,3.97-1.64,8.15-2.75,12.21-4.19,12.44-4.4,24.65-4.28,36.66,1.59,2.31,1.13,4.82,1.86,7.88,3.03,1.27-2.9,2.74-5.14,3.25-7.59,2.12-10.34,5.53-20.07,10.31-29.59,4.78-9.53,7.63-20,11.85-29.84,6.71-15.67,16.62-28.71,31.4-37.95,5.7-3.56,10.1-9.16,15.68-12.98,4.14-2.83,9.22-4.27,15.32-6.97.2-3.54.2-9.07.9-14.52.65-5.07,2.03-10.05,3.19-15.58-4.82-2.47-10.23-3.42-15.95-2.82-11.87,1.26-23.74,2.6-35.62,3.76-3.29.32-6.71.66-9.91.1-5.89-1.04-8.05-4.71-7.06-10.7,1.13-6.85,2-13.75,3.46-20.52,1.64-7.62,8.28-12.07,15.98-11.23,8.53.93,17.04,2.28,25.6,2.77,8.27.48,16.59.1,25.5.1,2.49-8.34,7.75-16.1,14.1-23.26,4.18-4.72,7.7-10.05,11.97-14.68,9.8-10.61,19.5-21.38,30.01-31.26,5.87-5.51,13.28-9.38,19.99-14,9.88-6.8,20.89-11.75,29.21-21.14,4.37-4.94,11.78-7.2,17.86-10.6,6.96-3.89,13.94-7.74,20.97-11.49,2.01-1.07,4.23-1.74,6.36-2.59,11.4-4.58,22.83-9.09,34.16-13.82,2.01-.84,3.64-2.6,6.24-4.53Zm-112.57,1743.53c1.6.72,2.74,1.64,3.94,1.73,9.91.7,19.87.85,29.74,1.91,15.73,1.69,31.99-.8,47.11,6.29,3.4,1.59,7.84,1.01,11.81,1.32,3.97.31,7.98.26,11.93.74,11.52,1.39,23.07,2.66,34.49,4.62,4.28.73,8.26,3.22,13.76,5.48-3.56,5.07-6.11,8.69-7.92,11.28-18.81-.39-35.18-7.98-52.77-6.01-1.58.18-3.25-.5-4.88-.65-9.81-.95-19.63-1.82-29.44-2.82-4.72-.48-9.45-1-14.12-1.83-4.82-.86-9.53-2.94-14.33-3.1-22.17-.71-44.36-.54-66.52-1.44-27.23-1.11-54.18-4.5-80.46-12.21-1.4-.41-3.02-.05-4.54-.05-.29.65-.59,1.3-.88,1.95,5.58,3.88,11.01,7.99,16.78,11.57,5.36,3.33,11.41,5.6,16.57,9.18,21.93,15.2,44.7,28.75,70.03,37.57,5.62,1.96,11.41,3.51,16.88,5.83,11.84,5.01,24.73,7.62,34.67,16.96,7.45,7,16.19,12.61,23.96,19.29,4.96,4.26,9.43,9.15,13.69,14.12,3.13,3.66,4.74,7.84,2.02,12.87-.93,1.72-.15,4.37-.15,7.87,5.19.22,10.01.39,14.82.65,2.95.16,6.07-.06,8.8.83,9.69,3.16,19.64,3.89,29.6,2.85,11.23-1.17,19.96-6.64,24.21-17.63,6.33-16.39,5.94-33.92,7.84-50.98,1.15-10.39-.99-21.11-.64-31.64.5-15.02,1.9-30.02,2.96-45.02.32-4.6.98-9.19,1.09-13.8.47-19.54,3.02-38.9,2.16-58.62-.72-16.38,2.5-32.93,4.09-49.4.15-1.56.94-3.1,1.6-4.57,3.2-7.1,7.21-13.94,9.44-21.32,1.61-5.31,4.36-8.45,8.75-11.33,3.74-2.46,6.77-6.04,9.98-9.26,2.99-3,5.59-6.4,8.72-9.23,4.63-4.18,9.56-8.03,14.39-11.98,12.03-9.86,24.89-17.64,41.32-16.49,8,.56,16.03,1.31,21.15-7.05.58-.94,2.32-1.2,3.54-1.72,12.35-5.31,24.47-4.64,36.56,1.03,8.44,3.96,16.09,8.9,23.43,14.75,15.45,12.31,26.14,28.11,35.35,45.14,1.21,2.24,1.45,5.07,1.91,7.66,2.18,12.44,4.32,24.89,6.37,37.36.43,2.61.82,5.33.59,7.94-1.21,13.81-2.64,27.6-3.97,41.39-.22,2.32-.25,4.66-.51,6.98-1,8.87-1.6,17.82-3.2,26.58-2.79,15.35-6.99,30.47-9.13,45.89-2.27,16.35-2.48,32.98-4.23,49.42-1.41,13.31,1.66,25.49,6.24,37.81,5.16,13.87,14.1,22.68,28.37,26.9,7.59,2.25,14.94,5.72,21.88,9.57,7.33,4.06,14.49,3.54,22.93,1.78-.5-2.87-.75-5.42-1.41-7.86-1.56-5.74-3.04-11.53-5.09-17.1-1.92-5.22.36-8.13,4.37-10.79,13.68-9.07,27.27-18.26,40.94-27.35,3.28-2.18,6.61-4.34,10.09-6.18,9.67-5.1,19.11-10.81,29.23-14.82,15.09-5.98,30.8-10.35,45.99-16.1,8.63-3.27,17.96-6.5,24.76-12.34,7.49-6.44,16.89-6.57,24.58-11.29.28-.17.56-.36.86-.51,13.67-6.83,27.26-13.85,41.06-20.43,9.9-4.72,20.19-8.6,30.09-13.31,8.95-4.26,17.59-9.16,26.4-13.72,8.21-4.25,16.95-7.7,24.54-12.84,7.82-5.3,15.37-7.23,24.3-4.13,3.07,1.06,6.36,1.5,9.97,2.32,1.91-2.64,4.09-5.17,5.72-8.02,3.15-5.54,6.94-10.01,12.45-13.74,9.59-6.5,19.02-13.63,24.73-25.7-5.03-.79-9.48-1.85-13.98-2.12-21.21-1.28-42.43-2.41-63.65-3.41-3.95-.19-7.96.35-11.92.81-12.69,1.48-24.36,6.26-36.04,11.13-29.77,12.41-59.63,24.6-89.42,36.96-11.56,4.8-22.92,10.12-34.58,14.65-10.19,3.96-20.67,7.18-31.03,10.68-13.83,4.66-27.61,9.5-41.54,13.83-12.05,3.74-24.24,7.03-36.44,10.24-8.87,2.33-17.79,5.51-26.81,5.98-16.68.87-33.02-2.86-49.2-6.86-4.08-1.01-6.76-3.09-6.13-7.51.45-3.14,5.79-5.4,9.76-4.86,11.49,1.56,22.97,3.17,34.49,4.43,6.23.68,12.78,1.94,18.74.72,11.29-2.3,22.2-6.46,33.39-9.33,8.66-2.22,17.56-3.52,26.29-5.48,7.11-1.59,15.23-1.89,21-5.66,16.22-10.61,35.17-13.88,52.58-21.15,15.52-6.48,31.53-11.92,46.67-19.42,4.71-2.33,9.17-6.97,13.86-7.13,7.36-.24,12.29-4.49,18.23-7.1,2.39-1.05,4.72-2.81,7.19-3.03,10.91-.95,20.07-6.62,29.93-10.41,13.54-5.21,26.48-12.34,41.76-11.88,6.53.2,13.09-1.21,19.66-1.64,7.25-.47,14.55-1.19,21.78-.82,14.22.71,28.41,2.1,42.87,3.23,0-1.66.37-2.86-.06-3.55-4.41-7.02-8.57-14.24-13.58-20.81-3.59-4.7-8.38-8.5-12.63-12.7-6.65,3.22-8.26-2.89-10.84-6.1-1.22-.15-1.9-.37-2.53-.29-9.05,1.21-16.6.36-23.79-7.33-6.56-7.02-16.19-11.08-24.12-16.91-15.48-11.39-30.68-23.17-46.08-34.67-14.27-10.65-28.71-21.07-42.94-31.77-4.77-3.58-8.77-8.26-13.73-11.5-10.11-6.6-18.29-15.08-26.13-24.08-3.66-4.2-7.9-7.89-11.94-11.76-5.68-5.45-12.52-10.1-16.83-16.47-5.24-7.75-10.56-15.13-17.72-21.16-5.03-4.24-9.96-8.61-14.93-12.93-1-.87-2.29-1.59-2.89-2.68-5.9-10.81-13.17-21.18-17.04-32.68-3.25-9.67-7.38-18.25-13.64-26.03-4.67-5.81-9.42-11.57-15.29-18.76-.3,3.67-.59,5.24-.53,6.8.74,16.97,1.5,33.93,2.38,50.89.15,2.97.97,5.91,1.39,8.87,1.97,13.78,4.05,27.54,5.83,41.34,2.68,20.73,2.1,41.87,7.91,62.22,1.18,4.12,1.54,8.47,2.35,12.7,3.18,16.62,6.12,33.29,9.67,49.84,2.71,12.63,6.29,25.06,9.29,37.63,1.69,7.06,2.45,14.39,4.6,21.3,4.9,15.79,2.4,31.72,1.04,47.47-1.05,12.15-4.54,24.07-6.66,36.14-.74,4.21-1.32,8.08-6.71,8.17-4.64.08-8.29-2.67-8.77-7.79-.46-4.88-.07-9.95.69-14.82,1.22-7.79,3.67-15.43,4.48-23.25,1.09-10.49,1.51-21.02-.57-31.6-1.97-10.06-1.99-20.54-4.48-30.44-3.23-12.84-8.13-25.24-12.12-37.9-1.28-4.06-2.36-8.28-2.8-12.5-1.08-10.33-1.21-20.77-2.68-31.03-1.74-12.13-5.06-24.04-6.67-36.19-2.13-16.1-5.89-32.08-3.46-48.62,1.18-8.06,1.45-16.39.98-24.53-.85-14.49-2.59-28.93-3.96-43.4-.28-2.97-.53-5.94-.81-8.91-.97-10.51-2.2-21-2.83-31.53-.45-7.55-.09-15.15-.09-20.34-7.31-5.72-12.74-9.92-18.11-14.19-11.94-9.48-23.23-19.86-37.74-25.59-3.37-1.33-6.72-3.07-9.57-5.28-4.27-3.3-4.15-9.88.28-11.67,4.18-1.69,8.46-2.47,12.99,1.06,7.29,5.68,15.22,10.57,23.12,15.41,3.12,1.91,6.88,2.78,11.95,4.75-1.72-5.6-2.55-9.48-4.1-13.05-2.23-5.15-1.14-9.89,1.35-14.31.95-1.68,3.44-3.53,5.16-3.47,1.89.06,4.17,1.9,5.41,3.6,1.05,1.44.88,3.78,1.22,5.72.76,4.38,1.49,8.77,2.53,14.91,2.07-2.48,2.81-3.43,3.62-4.33,4.25-4.73,7.52-5.1,11.35-.48,1.72,2.08,2.93,5.24,2.97,7.93.11,6.95-.45,13.92-.93,20.87-.78,11.42,2.35,21.1,9.67,30.33,15.02,18.93,31.36,36.95,41.72,59.3,3.58,7.72,9.07,14.67,14.4,21.41,4.5,5.7,10,10.61,15.1,15.83,20.6,21.08,41.16,42.2,61.89,63.16,3.71,3.75,7.89,7.14,12.25,10.1,9.04,6.13,18.73,11.35,27.47,17.86,20.19,15.03,39.63,31.06,60.05,45.76,10.96,7.89,23.28,13.89,35.04,20.65,1.41.81,3.31,1.81,4.69,1.48,7.62-1.8,9.69,2.98,10.59,10.5,4.12-2.38,7.56-3.64,10.02-5.94,5.06-4.74,9.46-10.18,14.39-15.06,6.34-6.27,6.76-7.58,2.27-15.44-1.64-2.87-3.48-5.82-5.88-8.03-15.06-13.81-30.39-27.34-45.45-41.15-4.1-3.76-7.93-7.92-11.29-12.35-4.68-6.17-8.49-13.01-13.21-19.14-9.32-12.1-19.3-23.7-28.45-35.92-5.93-7.92-10.76-16.64-16.29-24.87-8.87-13.2-18.16-26.12-26.79-39.47-4.21-6.52-7.17-13.82-10.93-20.64-7.99-14.5-16.42-28.76-24.12-43.41-4.76-9.07-8.2-18.82-12.78-28-8.57-17.19-17.35-34.27-23.88-52.38-2.9-8.04-5.86-16.06-8.91-24.04-.45-1.17-1.37-2.55-2.43-3.03-4.48-2.02-4.19-6.25-5.21-10-1.71-6.32-3.45-12.66-5.65-18.82-1.76-4.95-4.2-9.66-6.38-14.46-5.19-11.41-10.36-22.83-15.62-34.22-1.67-3.62-4.03-6.97-5.29-10.71-5.96-17.68-16.97-32.61-26.54-48.23-6.32-10.31-14.97-19.19-22.51-28.77-10.48-13.33-24.75-23.23-33.16-38.67-3.13-5.75-8.77-11.31-14.04-15.67-11.73-9.71-24.65-17.97-37.62-27.2-5.45,15.54-18.02,24.23-26.47,36.03-4.58,6.39-11.78,9.27-16.97,14.69-11.08,11.57-23.5,21.13-38.44,27.49-10.02,4.27-19.46,9.88-29.17,14.88-3.18,1.64-6.25,3.63-9.6,4.82-9.65,3.42-19.37,6.67-29.17,9.66-5.63,1.72-11.39,3.46-17.2,4-7.9.73-15.94-.12-23.86.47-13.74,1.03-27.43,2.68-41.15,3.98-1.28.12-2.61-.42-3.92-.63-3.51-.56-7.02-1.08-10.53-1.65-10.37-1.7-21.07-2.33-31-5.43-8.99-2.81-17.07-8.5-27.23-5.9-1.14.29-2.67-.31-3.85-.87-9.28-4.36-19.49-6.57-27.74-13.32-8.62-7.06-17.53-13.84-26.85-19.94-11.59-7.6-22.24-15.56-24.44-30.53-.14-.94-.9-1.77-1.31-2.68-5.29-11.53-8.92-12.83-19.7-5.46-10.11,6.92-19.7,14.62-29.44,22.08-2.88,2.21-5.79,4.51-8.2,7.19-13.55,15.06-27.3,29.97-37.8,47.5-4.25,7.09-9.36,13.66-13.72,20.69-3.29,5.31-5.82,11.1-9.03,16.47-7.15,11.96-15.06,23.49-21.64,35.75-6.42,11.96-11.41,24.68-17.31,36.93-5.86,12.16-12.02,24.18-18.16,36.21-2.11,4.13-4.46,8.15-6.84,12.13-6.32,10.53-13.15,20.79-19.02,31.57-12.7,23.33-24.76,47.01-37.42,70.37-6.8,12.54-14.21,24.76-21.52,37.02-5.79,9.7-11.55,19.43-17.84,28.8-8.89,13.24-18.27,26.15-27.42,39.21-8.18,11.67-15.66,23.93-24.73,34.86-7.01,8.45-13.6,17.08-20.13,25.9-9.87,13.33-20.27,26.43-31.81,38.29-8.6,8.83-16.71,17.93-24.51,27.43-3.56,4.33-4.17,7.88-1.2,12.46,6.71,10.33,13.09,20.87,20,31.06,4.07,6.01,6.89,6.98,13.54,3.94,15.68-7.19,31.39-14.47,44.22-26.48,4.55-4.26,8.41-9.93,13.76-12.5,13.7-6.59,24.22-17.23,35.99-26.22,7.85-5.99,13.69-15.02,22.07-19.82,10.93-6.26,18.08-15.35,25.38-24.78,2.44-3.15,4.8-6.4,7.61-9.2,5.15-5.14,11.21-9.47,15.81-15.03,10.97-13.26,20.89-27.39,32.01-40.52,15.34-18.12,28.67-37.34,38.47-59.09,2.62-5.81,7.31-11.46,12.49-15.17,8.57-6.14,13.73-14.33,17.99-23.39,4.07-8.66,7.78-17.5,11.44-26.34.49-1.19-.22-2.88-.47-5.18-6.89,3.67-12.66,3.31-17.7-1.63,2.07-7.93,4.43-9.78,11.24-11.19,4.1-.85,8.33-2.4,11.81-4.69,10.06-6.62,10.09-18.77,14.77-28.38.12-.24-.14-.64-.16-.97-.43-9.22-.87-18.43-1.27-27.65-.18-4.26,1.86-7.26,6.04-7.68,4.22-.42,6.85,2.58,7.96,6.27.48,1.61-.65,3.75-1.18,5.61-1.89,6.73-.95,18.01,2.2,23.92,1.03-.91,2.05-1.71,2.96-2.62,12.18-12.21,24.23-24.56,36.57-36.62,5.96-5.83,11.9-7.04,14.9-3.85,2.9,3.08,2.03,9.29-3.01,15.38-4.37,5.27-9.45,9.94-14.6,15.26-7.5-3-12.42.99-16.89,6.47-3.79,4.64-7.99,8.95-11.76,13.6-2.59,3.19-4.76,6.72-8.52,12.12,5.14-.99,7.73-1.2,10.13-2,9.48-3.14,18.83-6.63,28.36-9.61,3.4-1.06,7.17-1.57,10.71-1.37,4.95.28,8.34,4.03,7.33,7.48-1.27,4.35-4.82,5.88-8.63,4.32-4.17-1.71-7.97-.73-11.51.57-11.19,4.13-22.17,8.79-32.49,12.95-.89,2.98-.87,5.76-2.25,7.04-5.88,5.46-5.93,12.33-5.48,19.38.37,5.64.71,11.31,1.64,16.87,2.69,16.16,3.35,32.34,2.08,48.69-1.54,19.64-.68,38.93,4.93,58.23,3.93,13.54,5.17,28,6.33,42.15.97,11.83.04,23.81.06,35.72.02,8.97-1.03,18.18.63,26.86,2.86,14.93.56,29.9,2.15,44.78.88,8.26,1.29,16.59,1.39,24.9.23,19.99,2.22,39.75,6.8,59.23,3.12,13.26,5.86,26.63,9.43,39.77,2.65,9.74,4.89,19.99,14.58,26.5-.53,4.32-1.08,8.85-1.65,13.57Zm452.93-1204.58c-9.84,1.49-20.13,3.41-30.52,4.52-11.22,1.2-22.51,1.78-33.65-1.14-7.69-2.02-15.43-3.85-23.11-5.93-2.55-.69-5.11-1.63-7.42-2.9-24.62-13.56-45.05-31.18-56.62-57.68-8.33-19.08-17.41-37.93-21.37-58.49-2.11-10.96-2.85-22.31-2.99-33.5-.12-10.1.99-20.27,2.32-30.31,1.91-14.28,9.83-26.25,16.08-38.83,1.02-2.05,1.54-4.67,3.14-6.05,8.63-7.44,17.33-14.81,26.38-21.72,6.81-5.2,13.84-10.32,21.38-14.33,15.4-8.19,31.41-14.35,49.41-8.86,3.23.99,6.36,1.17,9.29-1.56,1.58-1.47,4.09-2.05,6.27-2.77,11.37-3.74,22.96-1.15,34.45-1,7.08.09,14.16.62,20.43.92.8-12.53,1.75-23.65,2.03-34.79.07-2.68-2.21-5.38-3.19-8.15-1.36-3.8-2.51-7.67-4.05-12.44-.1-.02-1.35-.58-2.61-.58-13.23,0-26.6,2.13-39.46-2.92-.57-.22-1.32.08-1.98.05-11.93-.53-23.87-.83-35.77-1.69-11.7-.84-23.1-.13-34.69,2.18-10.2,2.04-21.13,4.21-31.39-4.42v-29.74c10.03-9.54,16.71-10.51,25.01,3.59,12.26-1.34,24.75-2.99,37.29-3.98,12.56-.99,25.16-1.51,37.75-1.88,12.38-.36,24.77-.27,38.8-.4-3.45-4.84-7.14-7.77-7.72-11.22-1.87-11.15-9.78-19.02-14.77-28.31-6.81-12.69-15.69-24.51-25.12-35.48-8.33-9.69-18.07-18.43-28.22-26.24-8.87-6.82-18.77-12.68-28.98-17.27-10.44-4.7-20.47-10.33-31.87-13.29-11.52-3-22.75-6.87-34.7-8.1-2.84-.29-5.51-2.21-8.27-3.37-2.75-1.16-5.65-2.05-8.24-3.5-4.61-2.58-7.58-.76-9.91,3.2-4.02,6.81-5.48,14.08-3.97,21.95,2.31,12.06,4.31,24.17,6.73,36.2,3.77,18.73-3.43,33.8-15.65,47.05-5.6,6.07-12.12,11.29-17.82,17.27-9.65,10.11-20.91,17.08-34.74,19.78-5.53,1.08-10.99,2.58-16.48,3.88-12.68,2.99-29.11-1.3-34.33-10.25-5.63-9.65-10.52-19.84-14.66-30.22-5.35-13.41-5.17-27.7-4.77-41.94.14-4.81-2.55-10.41-.88-14.34,4.44-10.42,4.25-21.21,5.17-31.99,1-11.7-5.29-16.56-16.71-12.65-24.52,8.39-48.64,17.56-70.1,32.66-14.37,10.11-29.21,19.53-43.85,29.25-.55.37-1.25.57-1.71,1.02-17.87,17.33-37.04,33.36-52.84,52.74-1.73,2.12-2.81,4.78-4.98,8.57,9.28,0,16.84.11,24.4-.02,17.48-.32,34.96-.61,52.43-1.21,7.27-.25,14.5-1.66,21.76-1.78,7.87-.13,15.75.63,25.46,1.09.65.73,2.31,3.35,4.65,5.03,5.24,3.77,8.17,8.41,8.29,15.01.05,2.57,1.24,5.13,1.99,7.67,3.24,10.9-5.12,19.39-16.48,17.06-5.76-1.18-11.68-1.8-17.56-2.19-11.27-.73-22.56-1.21-33.84-1.62-20.88-.76-41.74-4.23-60.59-.86-4.35,4.03-7.24,6.9-10.33,9.54-4.88,4.18-9.67,8.31-7.13,15.38,15.69,3.1,30.87,6.09,46.07,9.1v-6.11c8.31-4.5,16.24-5.37,25.11-2.36,7.48,2.53,15.61,3.08,23.32,5.04,6.02,1.53,12.03,3.43,17.71,5.93,7.87,3.47,15.15,8.4,23.18,11.32,8.99,3.27,14.99,9.46,20.59,16.55,1.64,2.07,3.38,4.05,5.12,6.04,12.22,14,24.65,27.84,33.53,44.37,1.41,2.62,3.1,5.1,4.47,7.74,3.19,6.14,7.58,12.03,9.09,18.57,2.9,12.52,6.26,25.06,5.66,38.25-.58,12.95.27,25.96-.35,38.91-.36,7.54-1.59,15.26-3.86,22.44-2.66,8.43-6.77,16.42-10.44,24.51-5.73,12.61-14.15,23.48-24.81,31.99-10.06,8.02-18.47,17.69-28.99,25.39-15.91,11.66-31.08,23.59-51.23,26.99-14.12,2.39-28.13,5.22-42.57,3.53-7.43-.87-14.89-1.53-21.36-2.18-.22,4.62-.36,8.29-.58,11.96-.27,4.64-1.6,9.48-.7,13.87,2.13,10.37,5.1,20.58,8.11,30.75,3.29,11.15,7.13,22.13,10.5,33.26,4.4,14.51,7.73,29.41,13.08,43.55,4.67,12.33,11.15,24.03,17.46,35.67,8.82,16.27,17.57,32.63,27.56,48.18,9.3,14.48,19.88,28.19,30.52,41.75,4.44,5.66,9.79,11.31,15.96,14.75,10.75,6.01,22.17,11.14,33.83,15.13,18.17,6.23,37.09,9.31,56.31,10.51,12.27.76,24.64,1.22,36.74,3.19,11.74,1.91,23.11.99,34.3-1.8,15.69-3.91,31.3-8.26,46.65-13.33,11.2-3.7,22.41-7.75,33.22-12.28,15.44-6.46,29.79-15.53,44.54-23.61,1.68-.92,2.89-2.66,4.36-3.97,5.88-5.2,11.85-10.32,17.65-15.61,2.34-2.14,4.82-4.38,6.36-7.07,5.56-9.7,10.89-19.54,16.03-29.47,3.5-6.75,8.29-13.48,9.38-20.69,1.88-12.41,9-22.49,12.43-34.1,1.95-6.6,4.97-12.88,6.87-19.48,4.1-14.3,8.74-28.55,11.33-43.14,2.18-12.28,4.25-24.7,3.18-37.53-1.12-13.35-.25-26.86-.25-40.23Zm-793.46,1146.58c-.23.76-.47,1.52-.7,2.28,11.51,8.12,17.5,19.75,21.08,32.71.93,3.35,1.19,7.3.37,10.64-1.51,6.09-3.78,12.04-6.22,17.85-4.66,11.09-10.49,14.41-22.48,13.45-1.98-.16-4.05.19-5.94-.28-8.3-2.07-17.18-3.12-24.59-6.97-5.44-2.83-9.72-8.95-13.08-14.47-4.62-7.59-7.89-16-12.12-24.87-6.05,1.35-9.84-2.48-13.61-7.71-8.45-11.75-15.65-13.48-28.71-8.11-.31.13-.65.19-.93.35-15.87,8.65-23.89,19.83-23.5,37.29.24,10.62,4.49,19.94,6.67,29.9,1.27,5.81,2.21,11.92,4.78,17.17,4.7,9.59,9.34,19.01,11.47,29.64,1.93,9.64,2.68,18.2-4.55,26.61-8.67,10.07-15.69,12.43-27.47,6.62-1.87-.92-3.81-1.7-6.47-2.88.09,8.75.35,16.01,5.84,22.5,3.78,4.47,6.21,10.1,9.15,15.26,2.93,5.16,5.27,10.73,8.73,15.49,5.05,6.93,10.51,13.65,16.44,19.83,9.42,9.81,19.03,19.49,29.23,28.48,7.45,6.57,15.9,12.02,24.02,17.82,4.04,2.89,8.1,5.88,12.53,8.03,8.36,4.06,17.01,7.5,25.5,11.29,8.77,3.91,17.35,8.28,26.26,11.83,19.73,7.86,39.56,15.49,59.47,22.9,8.69,3.23,17.51,6.39,26.54,8.35,12.31,2.67,25.02,3.53,37.3,6.32,18.95,4.3,37.86,2.08,56.48-.5,8.78-1.22,17.59-2.84,26.48-3.72,3.63-.36,7.28-.85,10.82-1.7,14.52-3.46,29.14-6.62,43.47-10.77,15.85-4.59,31.49-9.97,47.1-15.34,8.7-2.99,17.06-6.95,25.75-9.95,9.96-3.43,20.2-5.56,29.9-10.34,8.04-3.96,13.23-7.17,9.98-16.78-.19-.56-.06-1.43.27-1.93,4.28-6.52,1.63-13.59,1.68-20.44.04-5.52-.56-11.07-.12-16.55.45-5.55,2.08-10.99,2.73-16.53.96-8.18,1.68-16.4,2.15-24.62.17-2.91.09-6.29-1.2-8.76-4.75-9.08-9.92-17.83-20.13-22.27-3.18-1.38-5.34-4.93-8.32-6.97-4.03-2.76-8.17-5.61-12.67-7.4-13.54-5.37-27.47-9.77-40.86-15.48-8.41-3.58-16.05-8.96-24.18-13.26-3.13-1.66-7.09-1.94-9.94-3.9-17.74-12.22-36.39-22.84-55.5-32.74-5.41-2.8-10.06-7.05-15.16-10.47-7.68-5.16-15.38-10.29-23.21-15.22-7.19-4.52-14.66-8.61-21.84-13.15-9.25-5.84-18.19-12.19-27.53-17.88-13.26-8.07-26.74-15.76-40.18-23.54-1.71-.99-3.64-1.68-5.56-2.2-15.32-4.12-30.8-6.97-46.78-6.36-6.64.26-13.31-.24-19.96-.02-6.24.21-12.46.94-18.69,1.43Zm1111.22,36.02c-2.36-.67-3.73-1.55-4.85-1.3-11.84,2.65-24.4,3.82-35.25,8.73-11.14,5.05-21.83,10.84-33.83,13.74-2.17.52-4.17,1.95-6.12,3.18-6.42,4.07-12.43,8.97-19.23,12.21-16.1,7.67-33.23,13.01-48.74,22.18-8.74,5.17-18.44,8.7-27.69,13-7.21,3.34-14.15,7.47-21.64,9.94-15.64,5.15-31.56,9.46-46.35,16.94-2.95,1.49-6.09,2.58-9.11,3.93-6.59,2.95-13.31,5.64-19.69,9-10.82,5.71-21.41,11.85-32.1,17.81-3.89,2.17-7.78,4.32-10.72,5.95,1.49,5.52,3.18,9.77,3.71,14.17,1.47,12.17,2.29,24.41,3.67,36.59,1.2,10.56,1.88,21.32,4.55,31.54,2.03,7.79,4.17,15.24,2.39,24.01,4.98,1.63,9.66,3.21,14.36,4.69,14.83,4.66,30.75,6.03,44.28,14.67.77.49,1.98.24,2.92.53,9.17,2.84,19.09,4.35,27.33,8.89,16.86,9.31,35.77,9.58,53.64,14.17,12.47,3.2,25.38,4.87,38.2,6.41,15.77,1.9,31.62,3.84,47.46,4.1,14.21.23,28.47-1.61,42.67-2.89,7.9-.71,15.86-1.6,23.57-3.38,14.13-3.27,28.31-5.98,41.31-13.61,10.18-5.97,22.27-8.59,32.96-13.83,13.33-6.54,26.48-13.62,38.98-21.61,11.31-7.23,23.53-13.67,31.35-25.36.35-.52,1.14-.71,1.6-1.18,8.61-8.74,17.15-17.52,20.59-29.85.98-3.52,1.74-7.22,3.41-10.42,4.5-8.63,5.47-17.69,4.43-27.54-1.78-1.53-4.12-2.98-5.69-5.02-3.38-4.39-6.93-8.8-9.37-13.72-3.49-7.02-1.02-15.79-6.52-22.67-1.48-1.85,0-6.39.68-9.58,1.08-5.12,3.3-10.07,3.8-15.21.8-8.24-.08-16.65.95-24.84,1.93-15.4-4.13-28.87-10.95-41.37-6.84-12.53-18.33-21.86-30-30.25-3.07-2.21-7.61-4.61-10.83-3.91-7,1.51-14.44,3.75-20.19,7.82-19.31,13.67-34.27,31.28-43.5,53.34-5.94,14.2-23.64,19.33-36.36,10.66-3.95-2.69-5.99-5.53-5.2-10.71,1.98-12.98,3.39-26.05,5.14-39.94ZM904.4,85.98c.8-18.23-2.68-35.72-9.87-52.37-5.64-13.08-18.01-14.86-26.42-3.53-4.46,6-8.3,13.15-10.01,20.35-2.43,10.26-3.46,21.03-3.62,31.61-.29,19.59.64,39.2.75,58.8.05,7.86.66,16.11-1.41,23.5-3.55,12.68-11.53,23.03-21.48,31.85-6.04,5.36-12.81,8.61-20.78,8.16-16.9-.97-33.79-2.2-50.63-3.88-3.33-.33-7.04-2.49-9.49-4.91-4.45-4.38-8.92-9.13-11.87-14.55-6.48-11.91-12.48-24.13-17.82-36.6-6.73-15.73-18.02-27.87-30.56-38.59-12.75-10.9-27.98-8.68-42.64-3.7-9.49,3.22-14.85,10.22-17.54,20.04-6.04,22.06.23,42.03,9.25,61.7,7.2,15.71,14.56,31.35,21.46,47.19,1.23,2.81,1.4,6.66.63,9.67-3.66,14.28-7.71,27.86-17.37,40.29-9.36,12.06-20.28,17.21-34.14,19.38-4.25.66-8.49,1.67-12.57,3.02-10.37,3.42-14.69,11.27-11.32,21.68,6,18.54,21.08,26.89,38.03,33.28,13.22,4.98,25.92.08,38-2.8,21.96-5.25,41.26-.34,60.31,9.49,14.55,7.51,25.96,18.64,34.41,32.35,7.12,11.54,12.87,24.18,12.14,38.21-.7,13.57-1.96,27.19-4.2,40.58-3.3,19.68-.19,38.42,6.9,56.57,5.4,13.81,12.94,18.63,25.72,17.13,5.26-.62,10.57-1.68,15.57-3.38,10.7-3.64,20.99-8.08,27.73-18.06,3.13-4.65,6.05-10.17,10.51-13.06,11.86-7.68,14.63-18.22,14.31-31.47-.31-12.86-4.07-24.84-6.8-37.08-4.1-18.39,4.16-39.86,19.77-49.65.84-.52,1.77-.95,2.72-1.22,10.24-2.91,20.61-5.61,31.23-2.63,7.45,2.09,13.87-.41,20.16-3.42,17.24-8.25,27.99-22.9,37.26-38.84,2.28-3.91,3.25-8.53.55-12.39-7.17-10.26-13.28-21.54-25.39-27.32-7.8-3.73-15.38-7.91-23.05-11.9-4.66-2.43-9.53-4.53-13.92-7.38-11.82-7.68-18.89-19.53-25.55-31.36-5.48-9.73-7.75-20.57-4.79-31.8,3.93-14.89,6.23-29.9,13.14-44.37,6.83-14.31,9.58-31.14,11.3-47.16,1.71-15.96,4.4-32.21,1.27-48.44-.18-.95.06-1.99.1-2.99Zm-337.63,1634.27c-.95-.19-1.9-.39-2.85-.58-4.02,5.58-8.2,11.05-12.03,16.75-5.36,7.98-10.93,15.88-15.51,24.31-3.48,6.42-5.62,13.36-13.2,16.64-2.05.89-3.16,4.08-4.59,6.28-5.97,9.15-11.6,18.55-17.97,27.42-3.62,5.04-9.63,8.61-12.44,13.95-5.6,10.67-12.42,20.09-21.4,28.04-.94.83-1.61,2.13-2.07,3.34-3.17,8.43-8.9,14.52-16.32,19.53-3.49,2.35-6.13,6.04-8.93,9.31-15.35,17.9-30.43,35.99-49.03,50.83-16.86,13.46-33.01,27.8-49.7,41.47-9.15,7.49-19.67,13.05-29.08,20.31-10.19,7.87-22.24,13.28-33.01,20.46-10.27,6.85-20.19,8.35-30.43.59-1.66,4.63-2.75,8.86-4.64,12.69-2.3,4.65-2.53,9.1.44,13.21,7.59,10.49,15.32,20.9,23.29,31.1,2.32,2.96,5.56,3.62,9.81,2.59,14.2-3.45,28.48-6.86,42.93-8.94,9.74-1.4,20.19-2.32,29.63-.28,13.15,2.84,26.31,6.97,37.78,14.84,7.94,5.45,16.05,10.66,24.21,15.78,4.17,2.61,8.31,5.64,13.65,1.6,1.19-.9,4.31.16,6.27.98,4.6,1.92,9.06,4.18,13.52,6.42,5.85,2.94,12.89,4.79,17.2,9.25,10.52,10.88,24.89,11.66,37.72,16.16,10.21,3.58,21.42,4.24,31.82,7.4,17.11,5.2,34.78,5.11,52.25,6.82,8.4.82,16.95.14,25.9.14-3.9-10.77-7.57-20.56-10.98-30.43-2.58-7.46-5.14-14.96-7.17-22.58-2.78-10.45-5.15-21.02-7.51-31.58-1.36-6.09-3.73-12.36-3.27-18.37,1.19-15.52-1.66-30.68-2.49-46-.25-4.58-.36-9.19-.29-13.78.1-6.96,1.79-14.21.35-20.8-3.07-14.14-1.54-28.44-3.16-42.58-.41-3.59-.25-7.24-.4-10.87-.43-10.42-.81-20.84-1.34-31.26-.34-6.55-.76-13.11-1.43-19.64-.67-6.45-1.54-12.89-2.6-19.29-1.78-10.69-5.11-21.31-5.35-32.01-.31-13.57,2.34-27.18,2.72-40.8.46-16.13-.14-32.29-.28-48.44Zm36.94-1090.61c-.15,2.13-.14,3.73-.38,5.3-1.38,8.9-5.7,12.01-13.81,8.59-10.89-4.6-22.35-3.93-33.62-4.95-2.84-.26-5.9.72-8.71,1.62-10.19,3.25-19.74,7.85-27.71,15.12-6.81,6.2-13.19,12.45-18.19,20.69-8.06,13.29-11.71,28.19-18.18,42-4.05,8.64-8.12,17.9-9.12,27.2-2.01,18.69-2.19,37.6-2.53,56.43-.11,6.07.6,12.58,2.76,18.18,9.53,24.68,19.48,49.24,39.06,68.22.47.45.76,1.09,1.15,1.63,7,9.72,17.18,15.45,27.12,21.45,1.38.83,3.18,1.79,4.62,1.57,5.88-.9,10.09,2.49,14.72,4.99,2.34,1.27,4.71,2.96,7.23,3.3,16.99,2.33,33.55,7.73,51.09,6.32,16.33-1.31,32.33-3.63,46.8-11.75,7.68-4.31,15.01-9.3,22.27-14.3,4.06-2.8,7.81-6.1,11.45-9.44,4.99-4.57,9.08-10.53,14.74-13.9,13.76-8.19,21.25-21.07,27.36-34.73,4.1-9.17,8.52-18.63,6.35-29.64-1.39-7.06-1.2-14.46-1.4-21.72-.42-15.73-.52-31.31-3.7-47.01-2.29-11.32-7.22-20.44-13.41-29.47-3.3-4.82-7.51-9.26-9.69-14.54-4.34-10.48-12.01-18.68-19.52-26.14-15.39-15.28-33.77-26.81-54.69-33.65-11.67-3.81-23.32-7.66-35.05-11.26-2-.61-4.35-.09-7.01-.09Zm438.58,299.26c16.79-.81,32.2-4.17,45.37-15.14,2.76-2.3,6-4.42,9.38-5.49,10.33-3.26,17.19-10.58,23.63-18.64,1.39-1.74,3.23-4.13,5.08-4.34,9.2-1.06,11.73-10.99,19.33-13.96,11.15-16.04,21.73-32.34,23.4-52.59.32-3.9-.34-8.01.66-11.69,4.11-15.1-.09-28.76-7.04-41.76-6.78-12.7-14.68-24.81-21.49-37.49-10.23-19.07-24.68-33.76-44.05-43.27-6.72-3.3-14.04-6.14-21.37-7.2-10.4-1.5-21.08-1.06-31.63-1.67-4.22-.25-7.97.18-10.76,3.73-3.46,4.39-8.29,5.22-13.44,5.14-2.99-.05-5.98-.29-8.98-.29-15.4,0-29.45,4.19-41.57,13.89-6.47,5.18-12.35,11.17-19.12,15.89-11.71,8.16-18.76,20.12-23.54,32.47-5.95,15.36-7.29,32.21-5.13,48.79,1.71,13.06,3.69,25.92,8.36,38.67,5.59,15.24,11.29,30.28,19.12,44.44,14.51,26.24,36.65,41.85,66.39,46.42,9.12,1.4,18.26,2.73,27.39,4.09Zm-128.73,1361.93c-.25-.91-.5-1.82-.75-2.73-6.39-1.44-12.8-2.85-19.18-4.33-11.72-2.72-23.04-6.33-32.1-14.79-1.15-1.08-2.67-2.39-2.86-3.76-1.14-8-2.03-16.18,5.03-22.25,7.39-6.35,15.78-11.03,25.47-6.01,9.82,5.08,18.61,3.32,27.48-1.59,7.38-4.09,10.11-9.81,7.96-16.35-2.4-7.29-7.72-10.4-16.64-8.86-6.79,1.17-13.67,2.54-20.12,4.89-13.71,5.01-29.12-3.83-37.57-14.28-4.26-5.26-5.17-11.14-4.53-17.8.84-8.87,5.25-15.56,11.06-21.76,7.47-7.98,17.31-10.63,25.89-6.34,5.02,2.51,10.48,4.13,15.7,6.26,4.5,1.83,8.54.85,12.19-1.95,2.63-2.02,5.22-4.19,7.47-6.62,3.19-3.44,6.33-7.14,4.37-12.42-2.46-6.64-7.56-10.49-14.5-10.13-4.94.25-10,.96-14.7,2.44-7.91,2.49-15.62,5.64-23.32,8.73-18.21,7.3-37.39-4.06-37.84-23.42-.19-8.5.36-16.92,6.55-25.02,10.2-13.34,23.02-16,37.88-14.09,11.32,1.45,22.48,4.11,33.76,5.96,5.05.83,10.24.61,13.4-4.34,2.73-4.28.88-13.7-3.07-17.46-5.16-4.91-11.52-6.44-18.26-8.56-10.03-3.15-17.39-.24-25.41,4.14-4.36,2.38-8.86,4.75-13.58,6.15-8.99,2.65-18.49,2.8-25.11-4.55-9.84-10.94-13.84-23.93-8.89-38.72,1.9-5.7,4.75-10.05,10.99-11.48,1.59-.36,3.38-1.01,4.47-2.13,8.19-8.34,18.81-7.21,29.01-7.57,3.98-.14,8.01.65,11.97.33,9.52-.76,19.08-1.48,28.48-3.07,7.05-1.19,10.3-5.24,10.92-11.12.69-6.55-3.91-14.23-9.27-17.12-8.39-4.53-17.69-5.86-26.69-6.31-10.39-.52-20.78.55-30.5,6.6-15.91,9.91-27.21,24.08-38.66,38.22-4.15,5.13-8.68,10.59-10.7,16.67-3.53,10.62-7.8,21.72-5.79,33.05,2.52,14.16-4.09,28.11.15,42.11.26.85-.32,1.94-.43,2.93-1.7,15.82-4.06,31.61-4.94,47.48-1.72,31.16-3.22,62.36-3.58,93.56-.17,14.39-4.41,27.4-8.23,40.81-3.34,11.72-13.98,16.96-21.19,25.23-.68.78-2.51.57-3.81.81-4.2.78-8.39,1.72-12.62,2.29-3.23.43-6.82,1.3-9.74.38-11.89-3.75-24.2-3.58-36.37-4.77-4.51-.44-8.97-1.32-13.58-2.02-2.51,7.96-.95,15.13-.46,22.41.46,7-.68,14.11-1.15,21.59,7.9-1.43,15.45-1.25,21.46-4.2,14.8-7.27,30.64-2.62,45.69-5.68.54-.11,1.25.39,1.83.7,7.39,3.87,14.47,7.99,17.78,16.41,1.32,3.37,2.64,7.45,5.28,9.45,6,4.55,5.81,10.6,6.41,16.94,1.03,10.9,1.54,22.04,4.35,32.52,3.76,13.99,12.55,24.75,28.26,25.5,9.44.45,19.35-.63,24.61-11.25,1.7-3.44,4.61-6.63,7.7-8.95,7.87-5.91,10.94-14.79,15.45-22.85,2.71-4.83,6.24-9.2,9.31-13.83,1.06-1.6,1.98-3.33,2.76-5.09,5.2-11.71,3.71-23.68-.04-35.18-3.44-10.55-2.55-21.08-1.93-31.62.53-9.02,4.39-12.73,13.26-14.85,5.49-1.31,11.06-2.3,16.49-3.82,2.55-.71,4.85-2.31,7.26-3.5Zm16.51-343.63c-.47.64-.93,1.27-1.4,1.91,3.91,4.41,7.86,8.79,11.73,13.24,6.36,7.33,8.53,15.81,5.62,25.06-1.97,6.24-4.85,12.2-7.49,18.21-.48,1.09-1.6,2.31-2.68,2.66-6.62,2.13-13.2,4.6-20,5.87-16.02,2.97-32.21,4.37-48.56,3.9-3.91-.11-8.04.61-11.74,1.9-6.01,2.1-9.46,11.59-7.41,18.8,1.87,6.58,7.34,9.89,14.96,7.6,4.91-1.47,9.91-4.13,13.7-7.55,12.25-11.08,33.89-9.83,44.28-.74,2.7,2.36,6.26,3.69,9.23,5.79,4.06,2.86,8.52,5.47,11.73,9.13,4.94,5.62,8.74,12.81,5.96,20.17-3.52,9.29-8.57,19.26-17.48,23.53-8.57,4.1-18.51,7.67-28.86,5.48-8.76-1.85-17.49-3.86-26.27-5.63-13.52-2.72-20.94,1.85-23.96,14.08-1.29,5.22.69,9.92,4,12.55,2.49,1.97,7.92,2.09,11.2.85,10.82-4.12,21.5-8.78,31.78-14.11,7.47-3.88,14.73-4.02,22.1-1.27,4.89,1.83,9.13,5.4,14.02,7.27,6.74,2.58,8.79,7.54,8.97,14.01.05,1.66.31,3.32.33,4.98.13,14.78-5.35,26.3-19.18,33.01-1.74.84-3.55,1.96-4.74,3.42-5.66,6.97-13.87,7.41-21.45,7.16-7.1-.24-14.07-3.34-21.19-4.64-6.41-1.17-8.67.37-10.67,5.84-1.9,5.2-.58,8.54,4,11.99,6.95,5.22,13.85,7.02,21.87,2.02,3.61-2.25,7.84-3.93,12.01-4.74,5.97-1.17,11.87-6.12,18.01-2.67,7.58,4.26,17.5,6.24,20.63,15.89,3.69,11.38,5.16,21.97-3.63,33.12-12.02,15.26-32.8,24.81-51.59,20.45-3.04-.71-6.12-1.26-9.18-1.88,9.01,9.14,19.93,12.98,32.1,13.41,6.82.24,13.39,1.11,18.56,5.99,4.54,4.28,8.4,10.01,5.72,15.9-4.94,10.86-11.24,21.24-24.8,23.34-3.25.51-6.51,1.01-9.78,1.35-3.81.39-6.35,2.05-6.44,6.15-.07,2.95-.16,5.95.29,8.84,1.58,10.1,3.34,20.17,5.13,30.23,1.75,9.84-1.43,18.13-6.89,26.23-6.96,10.32-13.18,21.14-20.26,32.65,3.59,2.03,7.08,4.7,11.01,6.07,8.47,2.94,15.45,8.2,21.1,14.61,5.5,6.24,12.42,9.97,19.25,13.83,8.31,4.69,17.03,2.06,22.75-5.66,4.24-5.73,7.45-11.87,7.47-19.21.04-10.94-.02-21.89.08-32.83.03-3.28-.53-7.06.85-9.76,6.98-13.67,14.39-27.05,32.93-27.01,3.51,0,6.97-2.07,10.54-2.83,6.12-1.31,12.26-2.96,18.46-3.33,7.54-.45,15.17,1.26,22.65-1.31,1.43-.49,3.28.09,4.91.34,8.38,1.31,16.73,2.8,25.13,3.95,2.13.29,4.4-.45,7.73-.86-.69-13.99-1.36-27.48-2.04-41.18-6.5-.87-12.36-3.07-17.58-2.03-8.18,1.63-14.91-1.36-22.06-3.64-2.5-.8-4.93-1.83-7.46-2.47-11.46-2.9-21-9.61-30.65-15.87-3.37-2.19-6.22-6.44-7.51-10.34-4.85-14.63-14.2-27.89-12.81-44.49,1.02-12.16.63-24.43,1.21-36.64.55-11.57,1.39-23.14,2.43-34.68.26-2.83,1.79-5.55,2.76-8.31,3.38-9.62,7.43-18.86,7.05-29.63-.31-8.75,1.71-17.59,2.71-26.39,1.45-12.77,5.91-25.18,4.45-38.32-.87-7.84-1.28-15.73-2.06-23.58-.19-1.93-.48-4.27-1.65-5.61-3.66-4.17-3.28-9.19-3.88-14.09-.44-3.56-1.05-7.14-2.05-10.57-6.41-22.04-24.1-35.18-40.02-49.47-4.89-4.39-11.93-6.37-17.98-9.45Zm-233.39-575.44c5.53,12.94,14.62,18.56,24.87,23.02,9.39,4.08,18.5,8.81,27.88,12.92,6.35,2.78,12.94,5.05,19.46,7.43,1.82.66,3.96.57,5.65,1.42,11.73,5.89,24.06,8.28,37.21,8.08,11.93-.18,23.76-1.17,35.64-1.88,21.37-1.27,40.51-8.79,59.67-16.95,2.73-1.17,5.35-2.77,7.74-4.55,13.38-10.03,27.54-18.97,39.8-30.58,7.52-7.13,13.16-15.33,18.91-22.99-3.39-5.22-6.86-9.41-9.01-14.2-2.11-4.7-2.96-9.98-4.22-15.03-4.12-16.52-5.25-33.71-11.32-49.78,2.49-10.11-5.47-17.36-5.85-26.86-3.37.49-5.41.5-7.26,1.1-16.72,5.34-33.63,10.2-50.06,16.35-17.92,6.72-36.37,6.52-54.88,6.03-10.58-.28-21.1-2.17-31.68-2.62-14.29-.61-28.56-.74-42.4-5.2-5.2-1.68-10.71-2.41-16.86-3.74,0,4.44-.25,8.1.05,11.71.99,11.88,1.99,23.77,3.34,35.62,2.69,23.62-8.69,45.72-29.67,58.19-6.17,3.67-11.63,8.51-17,12.51Zm397.92-391.75c3.97,2.06,7.59,2.94,9.71,5.22,6.49,7,14.74,7.17,23.04,6.56,5.1-.38,10.35-1.58,15.08-3.51,5.74-2.33,11.16-5.6,16.42-8.93,1.72-1.09,3.21-3.51,3.58-5.55.82-4.5.37-9.25,1.35-13.69,1.71-7.72.64-16.85,9.1-21.66,15.08-8.58,29.36-19.29,48.22-17.83,11.86.92,20.94-5.6,28.77-13.05,7.11-6.77,13.69-14.53,18.78-22.91,7.61-12.55,15.8-25.06,18.38-40.03.62-3.58,1.4-7.15,2.39-10.65,5.02-17.81,8.72-35.43,3.95-54.24-3.49-13.77-7.9-26.51-18.21-36.61-5.43-5.32-11.53-10.13-16.09-16.11-6.65-8.72-16.96-9.85-25.71-14.19-1.62-.81-3.93-.46-5.9-.3-5.94.48-11.85,1.35-17.8,1.66-6.35.33-12.06,2.57-15.64,7.49-6.19,8.51-14.34,12.32-24.68,12.89,8.01,14.54,16.15,28.96,19.1,45.5.57,3.2.46,6.54.51,9.82.09,4.92.05,9.83.06,14.75,0,1.94.42,3.97-.03,5.79-1.35,5.45-3.61,10.73-4.45,16.24-1.46,9.65-4.46,18.66-8.81,27.33-1.74,3.47-2.94,7.21-4.49,11.08,2.16.88,3.32,1.63,4.56,1.82,7.57,1.16,11.56,4.7,12.06,11.55.5,6.84-5.23,7.44-9.79,9.18-3.4,1.3-6.84,2.59-10.01,4.35-2.17,1.2-4.51,2.84-5.69,4.9-2.3,4.01-5.1,7.85-9.72,7.36-3.27-.35-6.26-3.41-9.79-5.5-14.38,10.46-29.31,21.31-44.95,32.69-1.05,15.32-2.18,31.79-3.33,48.6ZM214.46,1974.17c-7.34,5.46-13.91,10.46-20.59,15.3-5.61,4.06-10.76,8.94-18.09,10.05-1.45.22-3.12,1.36-4.02,2.58-9.09,12.21-21.91,19.56-35.51,24.73-21.9,8.33-41.85,21.02-64.34,27.9-1.5.46-2.7,1.9-4.07,2.84-4.01,2.75-8.15,5.32-12.01,8.27-3.01,2.3-7.24,4.11-5.53,9.97,2.73,1.04,5.82,2.11,8.82,3.39,4.27,1.83,7.62,2.7,10.96-2.43,2.65-4.06,10.72-5.17,13.63-3.4,3.56,2.16,3.94,7.13,1.74,13.52-2.7,7.8-6.8,15.71-7.05,23.67-.78,24.88-1.69,50.09,9.62,73.41,3.46,7.13,7.84,13.85,12.35,20.38,1.09,1.58,4.34,1.67,6.6,2.45,0-2.08.52-4.33-.08-6.22-2.88-9.11-6.15-18.09-9.12-27.17-2.78-8.48-6.8-16.87-7.68-25.56-1.15-11.37.23-23,.55-34.51.08-2.95.67-5.95.33-8.85-1.49-12.72.47-15.99,13.13-20.64,3.11,2.14,6.33,4.34,10.51,7.21-8.33,10.13-6.6,21.92-6.84,33.39,0,.33-.06.67-.13.99-3.08,12.86,1.25,24.78,4.98,36.66,2.46,7.82,6.98,15.12,8.63,23.05,3.27,15.78,11.52,28.8,20.53,41.51,2.91,4.1,7.11,7.05,13.79,4.78.21-3.35,1.31-7.12.48-10.41-3.37-13.38-6.42-26.97-11.35-39.79-4.08-10.6-6.62-21.33-8.68-32.38-3.36-17.96,2.6-33.77,12.13-48.03,4.4-6.59,11.87-11.59,18.86-15.83,5.23-3.17,11.87-4.13,17.96-5.77,9.62-2.58,18.23-1.67,25.14,6.82,3.28,4.03,7.22,9.01,11.75,10.23,8.32,2.23,10.54,8.51,13.4,14.73,2.63,5.72,4.36,11.88,7.22,17.46,6.88,13.4,20.51,18.93,32.96,17.72,3.94-.38,7.74-1.68,8.47-5.69,1.11-6.12,2.4-12.67-1.89-18.26-8.23-10.73-16.54-21.38-24.99-31.93-10.38-12.96-23.24-24.01-30.28-39.54-4.05-8.94-4.37-17.75.15-26.71,4.29-8.5,11.39-11.11,22.19-9.5-10.97-17.64-20.94-33.69-31.7-51-1.34,4.87-2.28,8.27-2.92,10.61Zm1198.38,189.32c3.04-5.17,5.93-10.23,8.96-15.22,2.22-3.66,4.38-7.39,6.99-10.77,2.83-3.67,6.07-7.04,9.27-10.4,10.17-10.69,20.39-21.32,30.64-31.93.66-.68,1.67-1.09,2.6-1.42,11.07-3.99,22.52-5.67,34.24-4.99,2.16.13,4.59,1.29,6.3,2.7,14.69,12.16,32.65,21.03,40.73,39.95.38.89,1.08,1.7,1.79,2.39,6.94,6.81,7.75,15.99,9.25,24.77.95,5.53,1.02,11.25,1.09,16.89.13,9.94.03,19.88-.12,29.83-.16,10.3-.61,20.6-.72,30.91-.05,5,1.4,9.45,6.64,12.91,1.94-7.56,4.56-14.07,5.12-20.75,1.16-13.95-1.05-27.99.7-42.03,1.79-14.33-1.54-28.34-3.91-42.39-1.2-7.13-1.32-14.03,7.83-16.99-2.1-4.2-3.7-7.82-5.66-11.25-3.3-5.76-6.85-11.39-10.25-17.09-2.96-4.97-1.49-9.87,1.37-13.98,2.69-3.85,6.78-5.4,10.1-1.49,7.3,12.91,14.61,25.83,21.91,38.74.69-.31,1.37-.62,2.06-.93-.57-2.03-.84-4.22-1.77-6.08-3.27-6.54-6.76-12.97-10.17-19.44-1.63-3.08-2.79-6.01.37-9.02,6.79-6.45,15.72-4.58,19.08,4.15,1.08,2.79,1.65,5.83,3.05,8.44,3.05,5.64,4.82,12.13,10.16,17.67.61-2.21,1.13-3.1,1.04-3.92-.25-2.31-.45-4.68-1.18-6.86-4.57-13.61-12.49-24.73-24.51-32.88-6.3-4.27-12.16-9.22-18.53-13.38-9.37-6.12-18.81-12.2-28.62-17.56-10.13-5.53-21.04-9.66-31.08-15.34-13.84-7.84-27.06-16.76-40.78-24.82-7.56-4.44-14.56-9.18-19.34-16.81-1.31-2.09-3.96-3.48-6.24-4.78-6.37-3.64-18.38,2.48-16.34,8.92,1.84,5.79-2.01,7.18-3.7,9.81.55,1.3.7,1.99,1.09,2.5.59.79,1.25,1.59,2.03,2.18,12.67,9.7,22.15,21.65,27.27,37,2.64,7.91,2.03,15.62,1,23.64-.73,5.65-5.04,7.35-8.42,10.31-1.24,1.09-2.3,2.42-3.27,3.77-6.1,8.45-14.08,14.84-22.21,21.24-9.29,7.32-16.39,16.25-17.59,28.88-.75,7.92-2.81,15.7-3.72,23.61-.46,4.04-.79,8.71,5.46,11.3Zm-259.33,240.48c-2.91-1.63-4.43-2.64-6.08-3.39-17.99-8.15-37.19-12.11-56.43-15.67-7.96-1.47-13.63-4.63-15.08-12.49-5.63-1.31-10.44-3.26-15.31-3.41-16.53-.49-33.1,0-49.63-.58-9.5-.32-17.4,3.48-25.56,7.24-9.51,4.39-13.89,12.18-14.29,22.15-.31,7.93.36,15.9.59,23.86.11,3.72,2.32,4.83,5.74,5.48,7.81,1.49,15.52,3.48,23.26,5.3,5.22,1.22,10.24,1.93,15.61-.21,3.2-1.27,7.14-1.14,10.71-.94,19.36,1.08,38.52.35,57.22-5.44,9.82-3.04,19.5-7.17,29.56-8.68,11.46-1.72,21.62-6.62,32.4-9.99,2.05-.64,3.95-1.74,7.27-3.24Zm-381.47,14.45c-.81-4.73-1.8-9.57-2.42-14.44-.62-4.86-1.46-9.81-1.18-14.66.7-12.09-20.86-30.78-33.06-29.32-16.87,2.03-33.52,3.81-47.46,15.79.38,1.01.9,2.53,1.51,4.01,2.76,6.67.32,13.57-6.37,16.22-5.5,2.18-11.23,4.56-17.02,5.08-15.55,1.4-27.84,10.12-41.01,16.91-1.85.96-3.25,2.79-6.69,5.85,9.21,1.37,16.23,2.85,23.32,3.39,14.52,1.1,29.07,1.79,43.62,2.46,9.58.44,19.18.97,28.75.69,10.56-.31,21.22-.74,31.59-2.52,9.14-1.57,19.42-1.05,26.44-9.47Zm238.57-1075.81c-1.36,9.14-6.53,14.11-16.07,13.6-4.29-.23-6.42,2.37-8.75,5.47-3.11,4.15-6.62,8.07-10.39,11.63-7.24,6.83-14.86,13.27-22.2,20.01-10.08,9.26-22.12,15.35-34.09,21.61-5.54,2.9-10.81,6.3-16.36,9.16-5.79,2.97-11.62,6.04-17.74,8.18-6.5,2.27-13.42,3.32-20.06,5.22-12.52,3.59-25.25,5.32-38.26,5.08-8.62-.16-17.24-.25-25.86-.62-5.9-.25-11.98-.14-17.63-1.59-10.23-2.63-20.02-7.09-30.31-9.38-20.59-4.59-38.03-15.34-54.88-27.08-8.68-6.05-15.4-14.41-18.5-25.02-1.54-5.29-3.11-10.56-4.64-15.75-7.83-.19-11.38,2.2-10.82,7.98,1.13,11.66,3.57,23,13.26,31.01,3.57,2.95,8.06,4.9,11.27,8.15,11.13,11.24,25.65,17.54,38.11,26.82,1.19.89,3.03.97,4.6,1.27,13.59,2.61,27.4,4.42,40.74,7.98,14.54,3.88,28.93,6,43.96,4.35,7.88-.86,15.88-.51,23.83-.78,22.82-.77,45.12-3.65,65.91-14.24,8.11-4.13,17.05-6.61,25.37-10.37,18.12-8.21,34.57-19.42,50.23-31.39,9.29-7.1,18.5-15.24,23.63-26.68,2.66-5.93,6.82-11.18,9.77-17,1.74-3.44,2.28-7.3-4.13-7.62Zm127.58-754.23c-.13-.64-.26-1.29-.39-1.93-2.16-.13-4.34-.11-6.47-.44-2.19-.34-5.18-.31-6.34-1.68-3.34-3.99-7.54-3.66-11.83-3.62-11.62.11-23.3,1.04-34.85.24-36.53-2.53-72.92,1.02-109.36,1.82-2.01.04-3.99,1.13-5.98,1.73.07.72.15,1.45.22,2.17,13.42,0,26.85.32,40.24-.18,4.3-.16,8.09-.31,12.45.9,6.61,1.83,13.75,1.87,20.69,2.32,9.58.63,19.18.9,28.76,1.4,9.9.51,19.81,1.69,29.69,1.53,12.58-.2,25.15-1.39,37.71-2.33,1.86-.14,3.64-1.27,5.46-1.94Zm-636.2-18.28c5.03.48,8.29,1.22,11.5,1.02,15.37-.94,30.42.97,45.39,4.24,2.53.55,5.26.39,7.88.31,12.22-.37,24.43-.82,36.64-1.27,2.96-.11,5.96-.77,8.87-.47,11.13,1.13,22.23,2.63,33.36,3.79,3.29.34,7.5,1.33,9.8-.21,7.17-4.78,14.94-1.44,22.96-2.77-.57-3.08-1.08-5.89-1.61-8.8-10.86-1.32-21.22-3.14-31.13.54-11.34,4.21-22.81,3.78-34.48,3.16-9.28-.49-18.59-.58-27.88-.69-4.32-.05-8.68.69-12.97.36-17.49-1.34-34.97-2.83-52.43-4.52-5.46-.53-10.41-.31-15.9,5.3Zm1092.67,1605.68c-.91,2.36-1.55,3.25-1.57,4.16-.42,16.8-.9,33.6-.95,50.4,0,2.02,2.08,5.27,3.77,5.7,1.62.41,4.88-1.61,5.88-3.42,6.06-11.01,5.57-23.19,3.19-34.71-1.51-7.32-4.15-15.18-10.32-22.13Zm6.38-50.48c1.44,16.34,6.64,31.58,14.07,46.12.26-16.83-4.82-32.06-14.07-46.12Zm-1537.82-29.25c-9.18,8.05-9.23,9.82-1.01,15.08.32-4.71.61-9.14,1.01-15.08Zm-2.93,26q-7.01,4.45-2.11,16.82c.86-6.88,1.45-11.54,2.11-16.82Zm1040.66-447.23l-1.91.49c.48,1.75.95,3.51,1.43,5.26.56-.14,1.13-.28,1.69-.42-.4-1.78-.81-3.55-1.21-5.33Z"/>
      <path class="cls-2" d="m1319.86,2829.44c.78.3,1.56.88,2.34.88,37.2-.04,74.39-.19,111.59-.16,11.64.01,22.29,2.72,31.24,7.65,3.03,1.67,6.67,5.38,5.77,7.18-1.51,3.03-5.8,6.79-10.02,7.6-15.48,2.97-31.32,5.27-47.22,7.03-26.07,2.89-52.29,5.17-78.45,7.68-4.36.42-8.85,1.19-13.14.88-35.86-2.61-71.48.21-107.17,1.81-29.82,1.34-59.64,2.61-89.48,3.76-25.44.98-50.89,2.13-76.35,2.44-11.01.13-22.04-1.84-33.11-2.5-7.28-.43-14.63-.22-21.96-.29-8.78-.08-17.57-.22-26.35-.22-7.79,0-15.59.1-23.38.24-41.22.75-82.43,2.05-123.65,2.14-42.69.09-85.39-.8-128.08-1.63-38.64-.75-77.25-2.05-115.88-2.99-5.8-.14-11.65.36-17.46.63-44.8,2.14-89.2-2.58-133.83-3.45-9.82-.19-19.67-.15-29.47.2-13.12.47-25.37-1.49-37.16-5.15-4.87-1.51-10.41-2.68-10.39-7.37.01-3.97,6.75-9.88,12.83-11.02,2.3-.43,4.8-.35,7.73-.54.62-2.3,1.19-4.46,2.13-7.98,11.14,0,22.3.01,33.46,0,16.66-.02,33.45.83,49.95-.28,38.36-2.56,76.39-2.13,114.3,2.61,11.54,1.44,21.87-.39,31.55-4.96,2.86-1.35,7.24-1.66,10.93-1.68,18.14-.08,36.29.14,54.44.14,3.71,0,7.42-.53,13.64-1.01-3.55-2.35-5.12-4.33-7.2-4.61-7.62-1.04-15.4-1.5-23.12-2.2-4.76-.43-10.59.11-14.06-1.56-8.78-4.24-18.33-4.27-28.17-4.35-14.24-.12-28.54.18-42.71-.57-24.25-1.28-43.44-9.12-58.8-22.38,6.7-5.18,15.38-7.63,23.59-5.51,12.75,3.29,25,2.58,37.69,1.32,4.67-.46,9.36-.8,17.47-1.49-10.95-2.39-18.69-4.09-26.25-5.74-3.93-9.02-3.9-9.31-17.59-10.01-11.17-.57-22.43-.48-33.64-.41-28.94.17-57.87.49-86.8.75-33.34.3-66.76-.23-99.98,1.23-17.49.77-33.92-1.38-50.76-2.91-11.65-1.05-23.41-1.59-34.99-2.89-24.63-2.78-49.15-6.03-73.78-8.82-10.63-1.2-21.42-1.75-32.14-2.56-21.39-1.62-42.8-3.19-64.19-4.83-12.67-.97-24.05-4.47-32.4-10.76-6.19-4.67-12.74-7.88-21.54-9.54-3.43-.65-6.34-2.56-9.83-4.05,3.68-5.21,9.62-5.39,15.4-5,10.23.7,20.68,1.1,30.55,2.89,15.61,2.83,31.1,1.88,46.73,1.19,10.75-.47,21.49-1.06,32.25-1.39,7.21-.22,14.45.96,20.79-3.15,2.11-1.37,8.16-1.6,10.94-.56,15.32,5.72,31.78,3.45,47.75,3.53,32.88.16,65.77-.13,98.64-.57,20.09-.26,40.16-1.14,60.24-1.71,31.86-.9,63.67-.8,95.53.73,23.41,1.12,46.95.93,70.37,1.92,31.35,1.32,62.66,3.05,93.95,4.9,21.48,1.27,42.86,3.87,64.36,4.39,22.8.56,45.59,1.28,68.33,2.26,48.42,2.08,96.74,5.22,145.16,7.27,30.33,1.29,60.77,1.25,91.14,2.06,23,.62,45.97,1.77,68.97,2.45,29.26.86,58.53,1.61,87.81,2.14,32.8.59,65.61,1.16,98.41,1.21,20.04.03,40.18-.25,60.1-1.62,39.99-2.75,80.02-3.58,120.19-4,39.18-.41,78.29-3,117.47-3.91,21.95-.51,44.12-1.19,65.83,2.28,4.74.76,9.51,1.87,13.8,3.42,11.33,4.09,14.43,12.51,7.97,20.22-2.42,2.88-4.64,5.83-7.72,9.72-9.88-.59-20.44-1.22-31-1.87-1.96-.12-3.97-.65-5.84-.46-19.57,2.01-39.13,4.1-58.66,6.27-1.23.14-2.25,1.11-4.08,2.08,1.74,1.31,3.34,2.44,4.84,3.64,9.18,7.3,7.77,15.76-3.9,21.2-3.58,1.67-7.73,3.25-11.92,3.77-26.86,3.33-53.59,6.68-81.35,4.96-11.83-.73-24.52,1.09-36.1,3.4-9.05,1.81-17.92,2.81-27.16,3.22-11.73.52-23.45,1.24-35.18,1.73-5,.21-10.03.03-15.04.03.1.53.21,1.07.31,1.6Zm-636.05-68.78c-.09.85-.19,1.7-.28,2.54,1.66.48,3.27,1.25,4.99,1.39,33.57,2.76,67.1,5.8,100.75,8.03,33.17,2.2,66.45,3.81,99.72,5.23,38.15,1.63,76.34,2.85,114.52,4.07,17.15.55,34.33.83,51.49.98,35.77.32,71.58,1.29,107.3.45,36.72-.86,73.35-3.52,110.01-5.45,9.22-.48,18.64-.4,26.05-5.38,1.85-1.24,5.36-1.8,8.15-1.86,17.58-.41,35.18-.47,52.75-.89,13.6-.33,27.19-1.01,41.61-1.56-12.64-1.07-24.15-2.09-35.67-2.99-1.89-.15-3.86.24-5.8.32-13.36.55-27,2.53-38.63-4.42-1.44-.86-4.66-.48-7.05-.46-21.55.23-43.1.7-64.65.7-14.93,0-15.96.29-19.34,10.12-.3.88-1.66,1.59-2.75,2.58-3.77.23-7.66.68-11.56.66-50.99-.18-102.01.18-152.97-.82-50-.98-99.98-2.99-149.9-5.21-34.72-1.55-69.29-4.51-103.99-6.29-25.94-1.33-51.97-2.06-77.97-2.53-15.57-.28-31.19.48-46.78.77Zm43.89,61.96c1.87.47,3.53,1.13,5.28,1.3,20.88,1.92,41.7,4.55,62.68,5.45,30.75,1.33,61.61,1.53,92.43,1.99,36.75.55,73.5.93,110.25,1.27,35.83.33,71.67.53,107.51.75,11.22.07,22.43.01,34.06.01.66-4.61,1.11-7.77,1.62-11.34-9.47-.52-18.11-1.28-26.76-1.43-47.56-.86-95.13-1.56-142.7-2.35-28.95-.48-57.91-.93-86.85-1.57-32.19-.71-64.29-2.83-96.6-.33-15.01,1.16-30.43.13-45.65-.19-7.1-.15-12.13,1.37-15.24,6.45Zm90.62-62.5c3.87.3,6.75.6,9.65.74,20.52.99,41.04,2.05,61.57,2.91,40.13,1.68,80.24,3.96,120.41,4.67,44.54.78,89.15.18,133.72-.03,11.23-.05,22.47-.73,33.66-1.41,3.36-.2,6.59-1.37,9.87-2.1-13.04-2.16-25.6-2.76-38.17-3.04-22.02-.49-44.08-.45-66.07-1.25-23.37-.85-46.66-2.72-70.03-3.59-17.04-.63-34.22.23-51.23-.6-42.54-2.06-85.02-4.73-127.53-7.05-5.64-.31-11.34-.04-17.8-.04.74,4.09,1.26,6.97,1.95,10.8Zm-267.36,2.61c.35-.86.69-1.72,1.04-2.58-2.1-1.14-4.04-3.09-6.31-3.29-15.56-1.36-31.18-2.45-46.82-3.34-2.58-.15-6.68.63-7.79,1.9-4.56,5.23-11.24,4.12-18.17,3.88-32.24-1.09-64.01-6.42-96.54-4.8-1.45.07-2.93-.2-4.4-.28-28.84-1.52-57.69-3.02-86.53-4.57-38.12-2.04-76.25-4.05-114.36-6.23-18.57-1.06-37.08-2.54-55.64-3.63-2.89-.17-5.92.71-11.7,1.49,4.97,1.7,7,2.87,9.21,3.08,22.29,2.07,44.59,4.1,66.94,5.87,9.74.77,19.61.79,29.4,1.33,54.73,3.02,109.41,6.43,164.18,9.05,34.7,1.65,69.51,2.54,104.29,3.03,24.38.34,48.81-.57,73.21-.92Zm-98.6-27.82c0,.54-.02,1.09-.03,1.63,16.23,1.6,32.4,3.53,48.7,4.72,31.1,2.26,62.21,4.78,93.42,5.92,37.03,1.36,73.61,5.69,110.98,5.62,19.96-.04,39.86-1.42,59.82-.96,3.39.08,6.84-.95,12.92-1.86-5.02-1.39-7.17-2.43-9.43-2.55-17.97-.93-35.98-1.6-53.96-2.52-29.32-1.49-58.69-2.69-87.92-4.78-30.21-2.16-60.2-5.87-90.78-4.93-8.8.27-17.65.41-26.45.15-15.92-.48-31.81-1.41-47.73-1.89-3.15-.1-6.37.94-9.56,1.46Zm428.02,62.68c-.01,1.04-.03,2.08-.04,3.12,93.9,3.13,187.64,9.2,281.98,6.51-11.03-2.52-22.13-4.67-33.44-5.54-12.09-.93-24.39-.67-36.59-.92-66.59-1.35-133.18-2.72-199.78-4-4.03-.08-8.09.54-12.13.83Zm155.04-5.08c-.21-.66-.43-1.33-.64-1.99-9.18-.65-18.35-1.45-27.55-1.93-49.75-2.59-99.5-5.22-149.27-7.6-22.96-1.1-45.97-1.77-68.98-2.38-5.58-.15-11.22.72-16.84,1.13-.32.76-.64,1.52-.96,2.27,2.22,1.1,4.29,2.95,6.67,3.15,7.71.66,15.53.77,23.32.99,42.1,1.19,84.22,2.17,126.3,3.6,25.88.88,51.69,2.68,77.57,3.61,10.08.36,20.25-.52,30.38-.84Zm-262.38,48.97c89.69,6.09,179.64,6.9,269.68,6.01-89.8-3.98-179.67-6.3-269.68-6.01Zm-181.37-81.67c-.44,5.11.81,7.84,8.21,8.29,18.97,1.16,37.87,2.91,56.85,3.97,19.57,1.09,38.92,2.65,57.42,7.42,1.25.32,2.77.18,5.03.29,1.69-2.13,3.43-4.31,6.3-7.93-31.75-3.52-61.75-7.12-91.88-10.07-13.36-1.31-26.77-3.98-41.93-1.97Zm653.94,36.72c19.87,0,40.95.56,61.93-.16,20.52-.7,41.22,1.93,62.75-.52-1.49-1.26-1.77-1.72-2.11-1.74-12.6-.75-25.21-1.38-37.79-2.19-15.49-1-32.27,1.75-45.22-7.02-1.2-.81-3.7-1.14-5.55-1.06-17.77.72-35.54,1.58-55.53,2.5,8.62,4.09,14.74,6.99,21.52,10.2Zm23.75,43.35c-.04.96-.08,1.92-.12,2.88,7.94,1.5,15.87,3.04,23.84,4.49,10.79,1.96,21.48,4.44,32.46,5.63,11.52,1.24,23.34,1.26,35.04,1.74,3.9.16,7.94.54,11.71.07,16.76-2.1,33.47-4.38,50.13-6.8,3.44-.5,6.61-1.84,10.75-3.04-6.66-5.93-13.34-3.79-19.02-1.54-20.69,8.19-42.64,5.29-64.24,3.43-20.35-1.75-40.47-4.7-60.77-6.74-6.46-.65-13.18-.1-19.77-.1Zm-526.04,12.1c5,.73,7.83,1.32,10.71,1.53,60.55,4.28,121.36,2.13,182.04,3.25,3.87.07,7.77-.46,11.64-.76.36-.03.74-.45.92-.74.13-.21-.04-.52-.07-.78-33.67-1.83-194.43-6.65-205.24-2.5Zm-428.94-114.58c52.13,4.71,101.82,7.07,151.79,8.75-4.11-1.91-8.54-2.74-13.05-3.29-21.63-2.66-43.99-3.74-64.72-8.27-23.6-5.16-46.06-1.51-69.04-.38-.71.04-1.35.82-4.99,3.19Zm292.98,62.01c-.04.52-.09,1.03-.13,1.55,2.42.52,4.81,1.39,7.27,1.5,21.52.96,43.06,1.86,64.6,2.58,4.3.14,8.91-.09,12.94-1.02,8.67-2.01,16.91-2.12,25.96-.72,10.09,1.57,20.67,1.64,33.4-1.03-5.03-2.08-7.65-3.93-10.63-4.25-11.07-1.2-22.29-2.79-33.39-2.61-31.25.52-62.47,1.82-93.7,2.89-2.13.07-4.21.74-6.31,1.13Zm892.76-41.85c.16.86.33,1.72.49,2.58,6.58,0,13.18-.22,19.74.04,21.3.84,42.93-.46,63.53,4.93,5.93,1.55,14.98-1.5,19-5.84-18.14-6.33-38.14-3.13-57.01-5.08-12.28-1.27-25.32.71-37.99,1.44-2.65.15-5.18,1.26-7.76,1.92Zm-606.31,50.02l-.15-1.66c-9.56-.84-19.1-1.87-28.7-2.49-23.8-1.53-47.62-2.88-71.44-4.27-2.92-.17-5.88-.31-8.79-.15-4.04.22-10.1-.94-9.75,3.69.28,3.76,5.43,2.77,9.23,2.9,19.04.62,38.06,1.56,57.1,1.92,17.49.33,35,.07,52.5.07Zm615.56-6.44c-5.58-2.4-9.22-5.23-13.15-5.43-16.58-.83-33.32-1.78-50.88.84,3.54,3.83,6.09,6.59,8.59,9.29,18.29,1.87,35.82,1.11,55.44-4.7Zm-205.3,1.48c-.55.81-1.1,1.62-1.65,2.43,2.38,1,4.67,2.74,7.15,2.88,13.01.7,26.09.8,39.1,1.5,8.45.45,9.78-2.35,9.1-7.81-18.43-.65-36.12-1.83-53.7,1.01Zm-37.23,24.49c-9.96-2.53-20.73-3.47-31.12-2.97-10.21.49-21.9-3.71-31.76,2.91,15.11,4.68,41.48,4.98,62.88.06Zm-593.74-41.75c-23.16-7.33-47.4-8.59-58.49-3.39,15.55,5.2,45.64,7.18,58.49,3.39Zm-347.86-17.6c.18-.82.37-1.63.55-2.45-14.92-3.29-67.04-5.36-76.44-1.61,27.35,1.46,51.62,2.76,75.88,4.06Zm298.66,71.27c0,.74.01,1.48.02,2.22,21.12,2.67,54.99,1.44,62.75-2.22h-62.77Zm763.89-58.49c.06,1.08.12,2.16.17,3.23,23.49.22,46.9,3.14,70.47-.32-23.55-.97-47.1-1.94-70.64-2.91Zm-1136.1-37.22c.2-.94.4-1.88.6-2.82-6.57-.4-13.14-.88-19.73-1.18-6.3-.28-12.65-.65-18.94-.47-5.89.17-11.93-3.28-17.73-1.17-.01.73-.03,1.47-.04,2.2,18.61,1.14,37.23,2.29,55.84,3.43Zm1150.53,62.28c-9.13-4.27-13.61-4.53-26.74-1.57,7.26,4.52,12.99,4.85,26.74,1.57Zm-227.28,35.32q10.52,7.5,23.61,4.12c-6.57-4.11-13.02-6.8-23.61-4.12Zm-895.09-98.51l-1.05,1.69c4.01.76,7.96,1.9,12.05,2.18,4.69.32,9.51.03,14.23-.31,3.6-.26,8.01,2.51,12.4-1.75-13.56-.65-25.59-1.23-37.62-1.8Zm-215.84-3.38c12.35,6.75,14.29,6.71,24.41,0h-24.41Zm782.25,58.35c8.6,1.19,17.15,3.63,28.06.76-10.6-4.8-19.35-2.3-28.06-.76Zm399.15,55.07h21.29c-12.81-7.9-13-7.9-21.29,0Zm-180.68-60.99c-.02.82-.05,1.64-.07,2.46h17.71c.03-.53.06-1.07.09-1.6-5.91-.28-11.82-.57-17.73-.85Zm-565.92-41.97c.07-.73.14-1.46.2-2.19-6.83-.91-13.6-2.63-20.77.9,6.85.43,13.71.86,20.56,1.29Zm957.62,21.98c0-1.4.24-2.28-.04-2.36-4.6-1.37-9.32-3.02-15.49,1.6,6.53.32,11.01.54,15.53.76Zm-247.35,86.81c-4.51-3.75-7.42-2.69-10.09-.45-.43.36-.14,1.11-.25,2.54,3.44-.69,6.46-1.3,10.34-2.09Zm-29.03,1.43c.34.76.68,1.52,1.01,2.28,2.88-.57,5.76-1.14,8.64-1.71-.23-.58-.45-1.17-.68-1.75-2.99.4-5.98.79-8.98,1.19Zm296.81-102.88q10.11,3.35,14.5,0h-14.5Zm-948.42-6c.16-.66.33-1.32.49-1.98h-15.5c0,.31,0,.62.01.93,5,.35,10,.7,15,1.05Zm588.46,44.93c.11-.25.22-.5.33-.75h-12.98c.01.25.02.5.03.75h12.61Zm305.7-26.01l.46-1.94c-2.8-.27-5.6-.54-8.4-.81-.14.59-.27,1.18-.41,1.77,2.78.33,5.57.65,8.35.98Zm-631.6-20.53c.11.79.21,1.57.32,2.36,2.92-.32,5.84-.63,8.76-.95-.09-.47-.18-.94-.27-1.41h-8.82Zm-98.92,83.11v-1.91h-7.53c0,.5-.01.99-.02,1.49,2.52.14,5.03.28,7.55.42Z"/>
      <path class="cls-2" d="m997.32,974.66c2.47-.44,5.64-.45,8.28-1.64,2.87-1.29,7.04-3.32,7.51-5.66,1.91-9.59,8.5-10.73,17.85-10.68,2.63,5.59,7.19,11.58,8.1,18.09,1.33,9.49-1.01,19.01-7.85,26.65-.22.24-.55.37-.81.58-8.16,6.41-12.17,14.09-12.5,25.17-.49,16.13-3.62,32.17-5.64,48.25-.12.98-.23,2.02-.62,2.91-5.16,11.84-10.33,23.67-15.59,35.46-.66,1.49-1.69,2.87-2.78,4.09-6.79,7.64-13.15,15.52-19.13,23.9-5.94,8.33-15.24,14.27-23.13,21.19-2.46,2.16-5.76,3.64-7.57,6.21-4.26,6.03-10,9.52-16.7,12.02-5.29,1.98-10.42,4.38-15.65,6.51-7.11,2.89-14.31,5.09-22.19,4.75-4.59-.2-9.29.23-13.81,1.08-10.99,2.07-21.86.11-32.74-.59-10.22-.66-20.4-2.01-30.6-3.06-.33-.03-.68,0-.99-.11-13.06-4.37-26.18-8.58-39.16-13.2-6.54-2.33-12.95-5.14-19.18-8.2-6.49-3.19-12.71-6.94-19.04-10.47-.57-.32-.95-.96-1.52-1.29-23.33-13.66-33.58-36.62-41.26-60.59-6.46-20.14-10.98-52.38-12.06-80.4-3.52,2.02-6.71,3.5-9.5,5.53-10.9,7.91-19.29,7.17-21.46-9.62-1.57-12.14-1.68-24.51-1.82-36.78-.05-4.04,1.82-8.1,2.8-12.09,13.02,2.59,14.98,5.11,15.26,16.23.12,4.55.84,9.33,2.48,13.54,2.54,6.54,6.11,7.73,14.47,6.29.74-4.14,1.31-8.38,2.31-12.52.45-1.86,1.78-3.5,2.98-5.74,2.24.62,4.34,1.31,6.49,1.79,9.23,2.06,11.37,4.91,8.43,13.68-5.95,17.72-3.51,35.87-1,53.33,2.52,17.51,8.41,34.74,14.56,51.45,5.19,14.1,13.87,26.57,26.48,35.54,9.7,6.9,20,12.69,31.17,17.05,12.95,5.06,26.34,8.74,39.43,13.26,11.26,3.89,22.68,5.57,34.15,5.52,15.77-.07,31.54-2.04,47.3-3.23,1.64-.12,3.27-.72,4.9-.68,12.92.29,23.04-6.78,32.04-14.24,13.67-11.35,26.55-23.81,38.58-36.9,9.56-10.39,18.32-21.9,23.17-35.44,2.53-7.06,3.12-14.8,4.75-22.2,2.46-11.18,4.66-22.34,2.24-33.84-.13-.62-.11-1.38.12-1.96,4.06-10.04-1.32-18.82-4.32-27.62-2.53-7.44-4.09-14,2.8-21.32Z"/>
      <path class="cls-2" d="m677.5,1133c5.94,1.11,8.1,4.51,9.45,10.66,3.19,14.53,12.49,25.38,24.59,33.8,4.83,3.36,10.39,5.92,14.49,9.98,2.73,2.7,3.46,7.42,5.29,11.72-6.48,2.23-11.61.41-16.29-1.51-13.27-5.46-23.14-15.25-31.19-26.8-3.93-5.65-7-11.93-10.15-18.08-4.92-9.57-4.46-11.43,3.81-19.79Z"/>
      <path class="cls-2" d="m593.02,810.48c.81-4.01,1.54-7.71,2.31-11.41,1.68-8.06,2.9-16.27,9.54-22.28,3.72-3.37,6.97-7.21,12.91-5.5,1.44.41,3.24-.45,4.88-.72,4.35-.71,8.67-5.01,13.08-.96,6.52,5.99,14.3,10.97,16.68,20.47,3.48,13.88-1.72,24.92-12.18,33.13-4.01,3.14-10.56,4.22-15.95,4.19-9.91-.05-19.82-1.57-26.31-10.74-1.52-2.15-3.29-4.12-4.95-6.19Zm28.5-21.39c-4.02.23-4.53,2.43-4.57,10.92-.02,4.2,1.26,6.31,5.17,6.59,3.55.26,10.26-5.06,10.27-7.78.02-3.84-6.82-9.96-10.88-9.73Z"/>
      <path class="cls-2" d="m1011.65,834.28c-16.77,1.55-28.48-10.99-25.8-29.73,2.01-14.05,8.39-20.95,22.06-23.99,2.26-.5,4.57-.97,6.71-1.81,9.44-3.73,13.23-3.29,19.96,4.43,5.31,6.1,11.58,11.92,11.27,21.24-.33,9.88-3.65,18.12-12.96,22.45-7,3.25-12.91,10.12-21.24,7.41Zm-.19-20.93c2.81-.39,5.64-.15,7.82-1.23,2.87-1.42,5.18-3.74,4.64-7.75-.52-3.88-3.22-5.05-6.17-4.84-2.62.18-5.79,1.08-7.56,2.82-3.32,3.27-2.36,7.11,1.27,10.99Z"/>
    </g>
  </g>
  <path class="cls-3" d="m563.36,1018.25c5.3-2.97,10.2-6.61,14.6-10.81,1.3-1.24-.34-3.05-1.82-2.36-5.79,2.74-11.1,6.34-16.37,9.96l1.82,2.36c4.72-5.59,10.87-9.56,16.98-13.46-.61-.79-1.21-1.57-1.82-2.36-5.62,5.05-11.87,9.32-18.61,12.76l1.51,2.59c5.92-3.76,11.57-7.9,16.95-12.4,1.34-1.12-.37-3.16-1.82-2.36-6.84,3.8-13.69,7.6-20.53,11.4l1.51,2.59c6.69-4.68,13.2-9.59,19.53-14.74-.71-.71-1.41-1.41-2.12-2.12-3.96,3.79-7.99,7.64-12.91,10.17-2.61,1.34-5.43,2.03-8.2,2.94s-5.39,2.14-7.8,3.77c.61.79,1.21,1.57,1.82,2.36,2.42-1.93,4.86-3.87,7.57-5.38,2.87-1.6,6.01-2.44,9.13-3.44,5.17-1.66,10.41-4.23,12.43-9.63.68-1.81-2.22-2.59-2.89-.8-1.96,5.23-8.19,6.86-12.95,8.35-2.85.89-5.62,1.93-8.18,3.48s-4.9,3.44-7.23,5.3c-1.32,1.06.41,3.31,1.82,2.36,2.55-1.73,5.27-2.92,8.21-3.82s5.57-1.7,8.17-3.08c4.96-2.65,9.1-6.58,13.14-10.44,1.42-1.36-.65-3.31-2.12-2.12-6.13,4.98-12.45,9.74-18.93,14.27-1.56,1.09-.2,3.54,1.51,2.59,6.84-3.8,13.69-7.6,20.53-11.4l-1.82-2.36c-5.18,4.33-10.64,8.31-16.34,11.93-1.64,1.04-.2,3.47,1.51,2.59,6.95-3.55,13.4-8.01,19.21-13.23,1.26-1.13-.38-3.27-1.82-2.36-6.31,4.02-12.72,8.15-17.59,13.93-1.02,1.21.31,3.39,1.82,2.36,5.28-3.61,10.58-7.21,16.37-9.96-.61-.79-1.21-1.57-1.82-2.36-4.22,4.03-8.9,7.49-13.99,10.34-1.68.94-.17,3.54,1.51,2.59h0Z"/>
  <path class="cls-3" d="m574.98,935.07c-2.34,3.37-4.09,7.15-5.17,11.1.98.13,1.96.27,2.95.4,0-3.23-.05-6.49-.82-9.65-.24-1-1.37-1.3-2.2-.9-.88.42-1.32,1.36-1.47,2.28-.2,1.19-.3,2.4-.35,3.6-.09,2.28.04,4.56.16,6.84.11,1.92,2.92,1.94,3,0,.14-3.17.17-6.33.09-9.5l-2.95.4c1.19,3.78,3.05,7.25,5.49,10.38.75.97,2.18.28,2.51-.66.75-2.11,1.06-4.37.91-6.6-.09-1.37-1.54-1.89-2.56-1.06-.62.5-1.12,1.12-1.52,1.81l2.74.36c-.09-.47-.08-.96.01-1.43.33-1.69-1.76-2.57-2.74-1.16-.27.39-.4.88-.37,1.35.05.81.65,1.5,1.5,1.5.77,0,1.55-.69,1.5-1.5-.04.05-.05.1-.04.16l-2.74-1.16c-.2,1.03-.2,1.99-.01,3.02.24,1.31,2.13,1.41,2.74.36.28-.48.62-.85,1.05-1.2-.85-.35-1.71-.71-2.56-1.06.13,2-.14,3.92-.81,5.81.84-.22,1.67-.44,2.51-.66-2.1-2.7-3.69-5.8-4.71-9.06-.49-1.57-2.99-1.35-2.95.4.08,3.17.05,6.34-.09,9.5h3c-.11-1.93-.22-3.87-.19-5.81.01-.94.06-1.89.15-2.83.04-.39.07-.79.15-1.17,0-.02.12-.51.13-.5.11.07-.5.39-.07.18l-2.2-.9c.7,2.9.71,5.88.71,8.85,0,1.69,2.5,2.04,2.95.4,1.02-3.73,2.66-7.21,4.87-10.39.46-.67.12-1.67-.54-2.05-.75-.44-1.59-.13-2.05.54h0Z"/>
  <path class="cls-3" d="m910.3,1938.67c-5.36.97-10.52,3.05-15.06,6.07-.67.45-.96,1.32-.54,2.05.39.67,1.37.99,2.05.54,4.35-2.89,9.2-4.84,14.34-5.77.8-.14,1.25-1.11,1.05-1.85-.23-.84-1.05-1.19-1.85-1.05h0Z"/>
  <path class="cls-3" d="m774,2179.86c2.34-.03,4.61-.64,6.65-1.79,1.25-.71.75-2.88-.76-2.8-3.26.19-6.52.38-9.78.57-1.55.09-1.95,1.92-.76,2.8,1.81,1.32,4.06,1.72,6.24,1.34.73-.12,1.18-.97,1.07-1.65-.12-.79-.71-1.21-1.47-1.3-2.33-.27-4.66-.54-6.98-.8-.73-.08-1.39.63-1.47,1.3s.33,1.49,1.07,1.65c2.58.54,5.16,1.07,7.74,1.61.79.16,1.62-.23,1.85-1.05.2-.74-.25-1.68-1.05-1.85-2.58-.54-5.16-1.07-7.74-1.61l-.4,2.95c2.33.27,4.66.54,6.98.8l-.4-2.95c-1.36.23-2.77-.19-3.93-1.04l-.76,2.8c3.26-.19,6.52-.38,9.78-.57l-.76-2.8c-1.58.89-3.32,1.36-5.13,1.38-1.93.02-1.93,3.02,0,3h0Z"/>
  <path class="cls-3" d="m775.68,2175.6c.78-.52,1.51-1.09,2.05-1.87.24-.34.43-.75.52-1.16.12-.52,0-.96.04-1.43l-.2.76.09-.13-.54.54c.57-.38,1.53-.51,2.2-.6.8-.1,1.62-.07,2.41.01l-1.45-1.9c-.03.17-.07.34-.13.5.07-.18-.15.2-.04.07-.18.21-.31.34-.48.46-.54.38-1.09.55-1.76.69-1.61.34-3.24.44-4.68,1.33-1.19.74-.79,2.91.76,2.8,2.55-.18,5.1-.36,7.66-.55l-.4-2.95c-2.91.61-5.83,1.21-8.74,1.82-.72.15-1.18.95-1.07,1.65.12.8.71,1.2,1.47,1.3,2,.25,4,.51,5.99.76v-3c-3.15-.29-6.31-.57-9.48-.54-1.5.01-2.03,2.02-.76,2.8.83.5,1.65,1,2.48,1.5l-.3-2.36c-.17.18.09,0-.13.1.22-.1-.1.03-.18.06-.31.09-.63.14-.94.22-.8.21-1.59.6-2.03,1.34-.53.88-.45,1.99.12,2.84.64.95,1.66,1.36,2.76,1.48.99.11,2.02.05,3.02.05,1.1,0,2.21,0,3.31,0,1.03,0,2.08.07,3.11,0,1.2-.09,2.07-.8,2.4-1.96s.4-2.46.46-3.65.02-2.45-.1-3.67c-.17-1.72-2.31-2-2.95-.4-.43,1.07-.79,2.17-1.07,3.29-.13.54-.25,1.09-.35,1.63-.05.27-.09.55-.13.83-.03.21-.06.42-.09.64-.03.1.01.02.13-.23l.66-.39c.31-.07-.3-.08-.36-.09-.24-.04-.49-.08-.73-.12-.49-.08-.98-.16-1.47-.23l-.4,2.95c.99.04,1.97,0,2.96-.11.8-.09,1.5-.62,1.5-1.5,0-.81-.69-1.5-1.5-1.5h-2.24c-1.93,0-1.93,3,0,3h2.24v-3c-.98.11-1.97.15-2.96.11-.74-.03-1.39.6-1.47,1.3s.33,1.53,1.07,1.65c1.1.17,2.23.45,3.34.52,1.4.09,2.04-.91,2.21-2.15.28-1.99.81-3.93,1.55-5.79-.98-.13-1.96-.27-2.95-.4.21,2.04.22,4.16-.17,6.17-.02.09-.08.33-.05.34.1-.11.22-.18.37-.22h-.2c-.49-.1-1.15,0-1.65,0-1.06,0-2.12,0-3.18,0s-2.04,0-3.05,0c-.41,0-.86.04-1.26-.07-.05-.01-.2-.07-.2-.07-.22.02.08-.13-.02.05-.05.09-.07.5-.27.46,0,0,.45-.19.12-.08.28-.1.57-.15.85-.21.77-.18,1.51-.46,2.07-1.04.68-.7.53-1.85-.3-2.36s-1.65-1-2.48-1.5l-.76,2.8c3.17-.03,6.33.25,9.48.54.81.07,1.5-.74,1.5-1.5,0-.9-.69-1.4-1.5-1.5-2-.25-4-.51-5.99-.76l.4,2.95c2.91-.61,5.83-1.21,8.74-1.82,1.64-.34,1.3-3.07-.4-2.95-2.55.18-5.1.36-7.66.55l.76,2.8c1.45-.9,3.28-.72,4.85-1.27s3.28-1.74,3.61-3.57c.19-1.03-.42-1.79-1.45-1.9-1.9-.2-4.11-.02-5.84.83-.48.24-.92.64-1.07,1.18-.09.34-.03.66-.02,1,0-.03-.03.29.01.12-.11.41-.74.85-1.18,1.15-.67.45-.96,1.32-.54,2.05.39.67,1.37.99,2.05.54h0Z"/>
  <path class="cls-3" d="m1011.29,2141.3c-1.95-.14-3.91-.28-5.86-.42-.95-.07-1.9-.14-2.85-.2-.86-.06-1.9-.3-2.74-.06-2.29.66-.7,3.31-.5,4.76.26,1.81-.56,3.61-.33,5.44.09.74.61,1.58,1.5,1.5,4.28-.4,8.57-.81,12.85-1.21.92-.09,1.77-.9,1.45-1.9-1.08-3.33-4.58-4.4-7.76-3.86-1.43.24-3.58.75-3.58,2.58,0,.93.73,1.7,1.6,1.92s1.65-.2,2.33-.74c1.11-.88.1-2.48-1.06-2.56-2.58-.17-5.12-.03-7.68.34l.8,2.89c2.08-.5,4.08-1.28,5.96-2.29,1.1-.59.9-2.47-.36-2.74-1.95-.41-3.93-.65-5.92-.7l.4,2.95c2.15-.47,4.34-.56,6.54-.65,1.72-.07,2-2.39.4-2.95-.88-.31-1.78-.47-2.7-.56v3c1.98.07,3.96,0,5.93-.17.67-.06,1.26-.42,1.45-1.1.16-.58-.09-1.44-.69-1.69-1.86-.79-3.75-1.48-5.7-2.02l-.4,2.95,6.21-.17c1.95-.05,1.91-2.85,0-3-3.18-.24-6.36-.48-9.54-.73v3c4.78-.04,9.55-.07,14.33-.11,1.93-.01,1.93-2.99,0-3-5.71-.04-11.41-.08-17.12-.12-1.93-.01-1.93,2.99,0,3,5.71.04,11.41.08,17.12.12v-3c-4.78.04-9.55.07-14.33.11-1.95.01-1.91,2.85,0,3,3.18.24,6.36.48,9.54.73v-3l-6.21.17c-1.67.05-2.06,2.49-.4,2.95s3.36,1.02,4.98,1.71l.76-2.8c-1.97.18-3.95.24-5.93.17-1.96-.06-1.89,2.82,0,3,.66.06,1.28.23,1.91.45l.4-2.95c-2.46.1-4.92.24-7.33.76-1.69.37-1.25,2.91.4,2.95s3.43.23,5.12.59l-.36-2.74c-1.66.9-3.4,1.55-5.24,1.99-.79.19-1.26,1.08-1.05,1.85.24.86,1.04,1.16,1.85,1.05,2.28-.33,4.59-.38,6.88-.23l-1.06-2.56c.18-.07.14-.08-.1-.02h.8l.11.1.39.66-.06-.2v.8c-.43.36-.44.45-.03.27.19-.06.39-.11.58-.16.29-.07.59-.14.88-.19.61-.09,1.27-.11,1.87.02.95.2,1.88.78,2.2,1.74l1.45-1.9c-4.28.4-8.57.81-12.85,1.21l1.5,1.5c-.19-1.51.26-2.95.35-4.45.09-1.6-.59-2.89-.85-4.41v.8l.05-.19-.39.66.12-.1-.66.39c.39-.08,1.64.15,2.28.19.95.07,1.9.14,2.85.2,1.84.13,3.69.26,5.53.39,1.93.14,1.92-2.86,0-3h0Z"/>
  <path class="cls-1" d="m987.61,331.71c-3.11-9.27-11.06-14.83-16.97-21.87-4.18-4.98-9.43-9.45-15.03-12.74-10.55-6.2-21.52-11.79-32.67-16.87-9.61-4.38-16.55-11.64-21.53-20.18-4.03-6.91-9.3-14.16-7.84-23.18,1.12-6.88,1.99-13.85,3.86-20.54,4.28-15.31,8.8-30.56,13.76-45.67,6.42-19.57,6.27-39.98,7.94-60.1.88-10.53-1.05-21.27-.69-31.88.78-23.03-6.1-44.04-16.24-64.11-8.58-16.99-21.24-19.1-35.58-6.51-8.12,7.13-15.91,14.63-22.83,21.02,0,3.93.42,6.94-.09,9.79-.89,4.88-2.91,9.58-3.48,14.47-1.09,9.2-1.58,18.47-2.14,27.73-.6,9.89-1.89,19.86-1.25,29.68,1.07,16.28,1.62,32.35-.88,48.62-1.94,12.65-8.2,20.29-20.89,23.08-15.69,3.45-30.98,1.09-46.43-1.68-6.09-1.09-10.96-3.45-14.03-8.32-4.58-7.28-8.51-14.99-12.38-22.68-3.12-6.21-5.31-12.92-8.68-18.97-5-8.96-9.8-18.27-16.28-26.11-11.59-14.03-24.92-26.19-44.8-26.73-3.98-.11-8.12.95-11.94.23-12.12-2.29-21.07,4.04-28.1,11.79-12.8,14.11-21.38,29.72-20.99,50.6.42,22.44,8.26,42.03,16,62.04,3.7,9.56,8.89,18.56,12.35,28.2,1.81,5.05,1.7,10.93,1.76,16.44.04,3.48-1.65,6.95-1.8,10.46-.43,9.84-4.13,17.45-13.97,20.55-5.94,1.87-12.13,3.13-18.3,4.06-4.58.69-9.32.27-13.97.59-6.84.47-12.95,4.42-15.21,9.8-4.58,10.91-9.49,22.13-9.53,34.34-.03,7.69,1.72,14.59,7.57,20.84,7.99,8.54,16.72,15.87,26.27,22.46,9.49,6.55,20.36,9.95,31.38,10.76,9.09.67,18.77-.95,27.59-3.55,18.93-5.58,36.04.51,53.41,6.15.61.2,1.2.62,1.68,1.06,6.73,6.21,13.43,12.45,20.71,19.2-.11.08-.2.15-.3.23.5.52,8.93,9.44,7.98,24.94,3.56,1.95,5.26,6.33,4.71,12.82-.92,10.78-.73,21.57-5.17,31.99-1.67,3.93,1.01,9.52.88,14.34-.4,14.24-.58,28.53,4.77,41.94,4.14,10.38,9.03,20.57,14.66,30.22,5.22,8.95,21.66,13.25,34.33,10.25,5.49-1.3,10.95-2.8,16.48-3.88,13.83-2.71,25.09-9.68,34.74-19.78,5.71-5.98,12.23-11.2,17.82-17.27,12.22-13.25,19.42-28.32,15.65-47.05-2.42-12.03-4.42-24.15-6.73-36.2-1.51-7.87-.05-15.13,3.97-21.95,2.14-3.63,4.82-5.45,8.82-3.73,25.78-4.66,39.93-6.7,47.68-7.52,3.64-3,6.76-5.36,9.62-7.99,6.11-5.6,12.91-10.72,17.92-17.2,7.47-9.65,13-20.81,20.55-30.38,6.92-8.76,4.91-17.08,1.9-26.05Zm-16.89,19.37c-9.28,15.94-20.03,30.59-37.26,38.84-6.29,3.01-12.71,5.51-20.16,3.42-10.62-2.98-20.99-.28-31.23,2.63-.95.27-1.89.7-2.72,1.22-15.6,9.79-23.87,31.26-19.77,49.65,2.73,12.25,6.49,24.22,6.8,37.08.32,13.24-2.45,23.79-14.31,31.47-4.46,2.89-7.37,8.41-10.51,13.06-6.73,9.98-17.02,14.41-27.73,18.06-5,1.7-10.31,2.76-15.57,3.38-12.77,1.5-20.32-3.31-25.72-17.13-7.09-18.15-10.19-36.89-6.9-56.57,2.24-13.39,3.5-27.01,4.2-40.58.73-14.03-5.02-26.67-12.14-38.21-8.46-13.7-19.86-24.83-34.41-32.35-19.05-9.83-38.35-14.74-60.31-9.49-12.08,2.89-24.78,7.78-38,2.8-16.95-6.39-32.03-14.74-38.03-33.28-3.37-10.41.95-18.26,11.32-21.68,4.08-1.35,8.33-2.35,12.57-3.02,13.86-2.17,24.78-7.32,34.14-19.38,9.65-12.43,13.7-26.01,17.37-40.29.77-3,.59-6.86-.63-9.67-6.9-15.84-14.26-31.48-21.46-47.19-9.02-19.67-15.29-39.64-9.25-61.7,2.69-9.82,8.05-16.82,17.54-20.04,14.67-4.98,29.89-7.2,42.64,3.7,12.54,10.72,23.82,22.86,30.56,38.59,5.33,12.46,11.34,24.69,17.82,36.6,2.95,5.42,7.43,10.17,11.87,14.55,2.45,2.42,6.15,4.57,9.49,4.91,16.84,1.67,33.74,2.91,50.63,3.88,7.97.46,14.74-2.8,20.78-8.16,9.95-8.82,17.93-19.17,21.48-31.85,2.07-7.39,1.45-15.64,1.41-23.5-.12-19.6-1.04-39.21-.75-58.8.16-10.58,1.19-21.35,3.62-31.61,1.7-7.2,5.55-14.34,10.01-20.35,8.41-11.33,20.78-9.55,26.42,3.53,7.18,16.65,10.66,34.14,9.87,52.37-.04,1-.29,2.03-.1,2.99,3.12,16.23.44,32.48-1.27,48.44-1.72,16.02-4.47,32.85-11.3,47.16-6.91,14.47-9.21,29.48-13.14,44.37-2.97,11.23-.7,22.07,4.79,31.8,6.66,11.82,13.73,23.68,25.55,31.36,4.39,2.85,9.26,4.96,13.92,7.38,7.67,3.99,15.25,8.17,23.05,11.9,12.11,5.79,18.23,17.07,25.39,27.32,2.69,3.86,1.72,8.48-.55,12.39Z"/>
</svg>